<svg width="120" height="52" viewBox="0 0 120 52" fill="none" xmlns="http://www.w3.org/2000/svg">
<g filter="url(#filter0_d_29_137)">
<rect x="4" y="2" width="112" height="46" fill="#FFFFE9"/>
<rect x="5" y="3" width="110" height="44" stroke="black" stroke-width="2"/>
<path d="M40.4 30L39.098 20.844H40.834L41.296 26.15C41.3147 26.402 41.3333 26.6447 41.352 26.878C41.3707 27.102 41.3847 27.3307 41.394 27.564C41.4033 27.7973 41.4127 28.0587 41.422 28.348H41.464C41.5107 28.0587 41.5573 27.7973 41.604 27.564C41.66 27.3307 41.7113 27.102 41.758 26.878C41.8047 26.6447 41.856 26.402 41.912 26.15L42.668 23.182H43.886L44.6 26.15C44.6653 26.402 44.7213 26.64 44.768 26.864C44.8147 27.088 44.8613 27.3213 44.908 27.564C44.9547 27.7973 45.0013 28.0587 45.048 28.348H45.104C45.1227 28.0587 45.1367 27.7973 45.146 27.564C45.1553 27.3213 45.1647 27.088 45.174 26.864C45.1833 26.64 45.1973 26.402 45.216 26.15L45.664 20.844H47.302L46.07 30H44.236L43.522 26.752C43.4567 26.4627 43.4007 26.178 43.354 25.898C43.3073 25.6087 43.2653 25.324 43.228 25.044H43.186C43.1487 25.324 43.1067 25.6087 43.06 25.898C43.0227 26.178 42.9713 26.4627 42.906 26.752L42.206 30H40.4ZM48.5425 30V20.116H50.1665V22.664L50.0685 24.134H50.1105C50.4092 23.8167 50.7545 23.5413 51.1465 23.308C51.5479 23.0747 52.0099 22.958 52.5325 22.958C53.3259 22.958 53.9092 23.2007 54.2825 23.686C54.6559 24.1713 54.8425 24.8573 54.8425 25.744V30H53.2185V25.954C53.2185 25.4033 53.1205 24.9973 52.9245 24.736C52.7285 24.4747 52.3972 24.344 51.9305 24.344C51.5945 24.344 51.2959 24.4233 51.0345 24.582C50.7732 24.7407 50.4839 24.9833 50.1665 25.31V30H48.5425ZM59.9891 30.168C59.3824 30.168 58.8177 30.028 58.2951 29.748C57.7724 29.4587 57.3477 29.048 57.0211 28.516C56.6944 27.9747 56.5311 27.326 56.5311 26.57C56.5311 25.8047 56.6944 25.156 57.0211 24.624C57.3477 24.0827 57.7724 23.672 58.2951 23.392C58.8177 23.1027 59.3824 22.958 59.9891 22.958C60.5957 22.958 61.1604 23.1027 61.6831 23.392C62.2057 23.672 62.6304 24.0827 62.9571 24.624C63.2837 25.156 63.4471 25.8047 63.4471 26.57C63.4471 27.326 63.2837 27.9747 62.9571 28.516C62.6304 29.048 62.2057 29.4587 61.6831 29.748C61.1604 30.028 60.5957 30.168 59.9891 30.168ZM59.9891 28.852C60.3624 28.852 60.6844 28.7587 60.9551 28.572C61.2257 28.3853 61.4311 28.1193 61.5711 27.774C61.7111 27.4287 61.7811 27.0273 61.7811 26.57C61.7811 26.1127 61.7111 25.7113 61.5711 25.366C61.4311 25.0207 61.2257 24.7547 60.9551 24.568C60.6844 24.372 60.3624 24.274 59.9891 24.274C59.6157 24.274 59.2937 24.372 59.0231 24.568C58.7617 24.7547 58.5564 25.0207 58.4071 25.366C58.2671 25.7113 58.1971 26.1127 58.1971 26.57C58.1971 27.0273 58.2671 27.4287 58.4071 27.774C58.5564 28.1193 58.7617 28.3853 59.0231 28.572C59.2937 28.7587 59.6157 28.852 59.9891 28.852ZM69.7836 30.168C68.9903 30.168 68.3836 29.9347 67.9636 29.468C67.5529 28.992 67.3476 28.334 67.3476 27.494V21.39H65.1076V20.116H68.9576V27.578C68.9576 28.0447 69.0743 28.376 69.3076 28.572C69.5503 28.7587 69.8443 28.852 70.1896 28.852C70.3669 28.852 70.5489 28.8333 70.7356 28.796C70.9223 28.7493 71.1323 28.6793 71.3656 28.586L71.7436 29.776C71.4169 29.888 71.1089 29.9813 70.8196 30.056C70.5396 30.1307 70.1943 30.168 69.7836 30.168ZM77.1981 30.168C76.4981 30.168 75.8635 30.028 75.2941 29.748C74.7248 29.4587 74.2721 29.048 73.9361 28.516C73.6001 27.9747 73.4321 27.3213 73.4321 26.556C73.4321 25.8093 73.6001 25.17 73.9361 24.638C74.2721 24.0967 74.7108 23.6813 75.2521 23.392C75.7935 23.1027 76.3721 22.958 76.9881 22.958C77.6695 22.958 78.2435 23.098 78.7101 23.378C79.1861 23.658 79.5455 24.0453 79.7881 24.54C80.0401 25.0253 80.1661 25.5853 80.1661 26.22C80.1661 26.3787 80.1568 26.5327 80.1381 26.682C80.1288 26.822 80.1148 26.9387 80.0961 27.032H74.5941V25.884H79.0601L78.7521 26.248C78.7521 25.5667 78.5981 25.058 78.2901 24.722C77.9915 24.3767 77.5715 24.204 77.0301 24.204C76.6475 24.204 76.3021 24.2927 75.9941 24.47C75.6955 24.6473 75.4575 24.9133 75.2801 25.268C75.1028 25.6133 75.0141 26.0427 75.0141 26.556C75.0141 27.088 75.1121 27.5267 75.3081 27.872C75.5135 28.2173 75.7935 28.4787 76.1481 28.656C76.5121 28.8333 76.9321 28.922 77.4081 28.922C77.7721 28.922 78.1081 28.8707 78.4161 28.768C78.7241 28.6653 79.0321 28.5253 79.3401 28.348L79.8861 29.356C79.5221 29.5893 79.1115 29.7853 78.6541 29.944C78.1968 30.0933 77.7115 30.168 77.1981 30.168Z" fill="black"/>
</g>
<defs>
<filter id="filter0_d_29_137" x="0" y="2" width="116" height="50" filterUnits="userSpaceOnUse" color-interpolation-filters="sRGB">
<feFlood flood-opacity="0" result="BackgroundImageFix"/>
<feColorMatrix in="SourceAlpha" type="matrix" values="0 0 0 0 0 0 0 0 0 0 0 0 0 0 0 0 0 0 127 0" result="hardAlpha"/>
<feOffset dx="-4" dy="4"/>
<feComposite in2="hardAlpha" operator="out"/>
<feColorMatrix type="matrix" values="0 0 0 0 0 0 0 0 0 0 0 0 0 0 0 0 0 0 1 0"/>
<feBlend mode="normal" in2="BackgroundImageFix" result="effect1_dropShadow_29_137"/>
<feBlend mode="normal" in="SourceGraphic" in2="effect1_dropShadow_29_137" result="shape"/>
</filter>
</defs>
</svg>
