<svg width="122" height="54" viewBox="0 0 122 54" fill="none" xmlns="http://www.w3.org/2000/svg">
<g filter="url(#filter0_d_29_162)">
<rect x="6" y="2" width="112" height="46" fill="#F4F4C3"/>
<rect x="7" y="3" width="110" height="44" stroke="black" stroke-width="2"/>
<path d="M45.228 30.168C44.584 30.168 43.968 30.0513 43.38 29.818C42.792 29.5847 42.2693 29.2533 41.812 28.824L42.764 27.718C43.1093 28.026 43.5013 28.278 43.94 28.474C44.3787 28.6607 44.8407 28.754 45.326 28.754C45.858 28.754 46.264 28.6513 46.544 28.446C46.824 28.2313 46.964 27.9653 46.964 27.648C46.964 27.3773 46.8987 27.1627 46.768 27.004C46.6373 26.836 46.4553 26.696 46.222 26.584C45.998 26.472 45.732 26.3553 45.424 26.234L44.178 25.688C43.8607 25.5573 43.548 25.3893 43.24 25.184C42.9413 24.9787 42.694 24.7173 42.498 24.4C42.3113 24.0827 42.218 23.7 42.218 23.252C42.218 22.7667 42.3533 22.3327 42.624 21.95C42.8947 21.558 43.268 21.25 43.744 21.026C44.2293 20.7927 44.78 20.676 45.396 20.676C45.956 20.676 46.488 20.7833 46.992 20.998C47.5053 21.2033 47.9533 21.4833 48.336 21.838L47.496 22.874C47.188 22.622 46.8613 22.4307 46.516 22.3C46.18 22.16 45.7787 22.09 45.312 22.09C44.8827 22.09 44.5327 22.1833 44.262 22.37C43.9913 22.5567 43.856 22.8227 43.856 23.168C43.856 23.4013 43.9307 23.5927 44.08 23.742C44.2293 23.8913 44.4207 24.022 44.654 24.134C44.8967 24.246 45.1533 24.3533 45.424 24.456L46.628 24.974C47.02 25.1233 47.3653 25.3053 47.664 25.52C47.9627 25.7347 48.196 26.0007 48.364 26.318C48.532 26.626 48.616 27.004 48.616 27.452C48.616 27.9467 48.4807 28.3993 48.21 28.81C47.9393 29.2207 47.552 29.552 47.048 29.804C46.544 30.0467 45.9373 30.168 45.228 30.168ZM50.5425 30V20.116H52.1665V22.664L52.0685 24.134H52.1105C52.4092 23.8167 52.7545 23.5413 53.1465 23.308C53.5479 23.0747 54.0099 22.958 54.5325 22.958C55.3259 22.958 55.9092 23.2007 56.2825 23.686C56.6559 24.1713 56.8425 24.8573 56.8425 25.744V30H55.2185V25.954C55.2185 25.4033 55.1205 24.9973 54.9245 24.736C54.7285 24.4747 54.3972 24.344 53.9305 24.344C53.5945 24.344 53.2959 24.4233 53.0345 24.582C52.7732 24.7407 52.4839 24.9833 52.1665 25.31V30H50.5425ZM61.9891 30.168C61.3824 30.168 60.8177 30.028 60.2951 29.748C59.7724 29.4587 59.3477 29.048 59.0211 28.516C58.6944 27.9747 58.5311 27.326 58.5311 26.57C58.5311 25.8047 58.6944 25.156 59.0211 24.624C59.3477 24.0827 59.7724 23.672 60.2951 23.392C60.8177 23.1027 61.3824 22.958 61.9891 22.958C62.5957 22.958 63.1604 23.1027 63.6831 23.392C64.2057 23.672 64.6304 24.0827 64.9571 24.624C65.2837 25.156 65.4471 25.8047 65.4471 26.57C65.4471 27.326 65.2837 27.9747 64.9571 28.516C64.6304 29.048 64.2057 29.4587 63.6831 29.748C63.1604 30.028 62.5957 30.168 61.9891 30.168ZM61.9891 28.852C62.3624 28.852 62.6844 28.7587 62.9551 28.572C63.2257 28.3853 63.4311 28.1193 63.5711 27.774C63.7111 27.4287 63.7811 27.0273 63.7811 26.57C63.7811 26.1127 63.7111 25.7113 63.5711 25.366C63.4311 25.0207 63.2257 24.7547 62.9551 24.568C62.6844 24.372 62.3624 24.274 61.9891 24.274C61.6157 24.274 61.2937 24.372 61.0231 24.568C60.7617 24.7547 60.5564 25.0207 60.4071 25.366C60.2671 25.7113 60.1971 26.1127 60.1971 26.57C60.1971 27.0273 60.2671 27.4287 60.4071 27.774C60.5564 28.1193 60.7617 28.3853 61.0231 28.572C61.2937 28.7587 61.6157 28.852 61.9891 28.852ZM68.0036 30V23.126H69.3336L69.4736 24.68H69.5156C69.8609 24.12 70.2856 23.6953 70.7896 23.406C71.3029 23.1073 71.8536 22.958 72.4416 22.958C72.7216 22.958 72.9643 22.9813 73.1696 23.028C73.3749 23.0747 73.5756 23.1447 73.7716 23.238L73.4356 24.596C73.2116 24.5213 73.0109 24.47 72.8336 24.442C72.6656 24.4047 72.4509 24.386 72.1896 24.386C71.7229 24.386 71.2656 24.5213 70.8176 24.792C70.3789 25.0627 69.9823 25.534 69.6276 26.206V30H68.0036ZM80.0521 30.168C79.3521 30.168 78.7968 30.0467 78.3861 29.804C77.9755 29.552 77.6815 29.2067 77.5041 28.768C77.3268 28.3293 77.2381 27.8207 77.2381 27.242V24.4H75.4041V23.196L77.3081 23.126L77.5181 20.97H78.8481V23.126H81.9841V24.4H78.8481V27.228C78.8481 27.6013 78.8995 27.914 79.0021 28.166C79.1048 28.4087 79.2728 28.5907 79.5061 28.712C79.7395 28.824 80.0475 28.88 80.4301 28.88C80.7288 28.88 80.9995 28.8567 81.2421 28.81C81.4848 28.7633 81.7181 28.698 81.9421 28.614L82.2501 29.776C81.9421 29.8787 81.6108 29.9673 81.2561 30.042C80.9015 30.126 80.5001 30.168 80.0521 30.168Z" fill="black"/>
</g>
<defs>
<filter id="filter0_d_29_162" x="0" y="2" width="118" height="52" filterUnits="userSpaceOnUse" color-interpolation-filters="sRGB">
<feFlood flood-opacity="0" result="BackgroundImageFix"/>
<feColorMatrix in="SourceAlpha" type="matrix" values="0 0 0 0 0 0 0 0 0 0 0 0 0 0 0 0 0 0 127 0" result="hardAlpha"/>
<feOffset dx="-6" dy="6"/>
<feComposite in2="hardAlpha" operator="out"/>
<feColorMatrix type="matrix" values="0 0 0 0 0 0 0 0 0 0 0 0 0 0 0 0 0 0 1 0"/>
<feBlend mode="normal" in2="BackgroundImageFix" result="effect1_dropShadow_29_162"/>
<feBlend mode="normal" in="SourceGraphic" in2="effect1_dropShadow_29_162" result="shape"/>
</filter>
</defs>
</svg>
