<svg width="122" height="54" viewBox="0 0 122 54" fill="none" xmlns="http://www.w3.org/2000/svg">
<g filter="url(#filter0_d_29_156)">
<rect x="6" y="2" width="112" height="46" fill="#F4F4C3"/>
<rect x="7" y="3" width="110" height="44" stroke="black" stroke-width="2"/>
<path d="M32.78 30L35.748 20.844H37.652L40.62 30H38.898L37.512 25.128C37.3813 24.6427 37.2413 24.1433 37.092 23.63C36.952 23.1167 36.8213 22.608 36.7 22.104H36.644C36.5133 22.608 36.378 23.1167 36.238 23.63C36.1073 24.1433 35.972 24.6427 35.832 25.128L34.432 30H32.78ZM34.53 27.522V26.248H38.828V27.522H34.53ZM42.7145 30V23.126H44.0445L44.1845 24.68H44.2265C44.5719 24.12 44.9965 23.6953 45.5005 23.406C46.0139 23.1073 46.5645 22.958 47.1525 22.958C47.4325 22.958 47.6752 22.9813 47.8805 23.028C48.0859 23.0747 48.2865 23.1447 48.4825 23.238L48.1465 24.596C47.9225 24.5213 47.7219 24.47 47.5445 24.442C47.3765 24.4047 47.1619 24.386 46.9005 24.386C46.4339 24.386 45.9765 24.5213 45.5285 24.792C45.0899 25.0627 44.6932 25.534 44.3385 26.206V30H42.7145ZM53.8951 30.168C53.5684 30.168 53.2277 30.0887 52.8731 29.93C52.5277 29.7713 52.2011 29.5427 51.8931 29.244H51.8511L51.7111 30H50.4371V20.116H52.0611V22.664L51.9911 23.868H52.0331C52.3224 23.588 52.6491 23.3687 53.0131 23.21C53.3864 23.042 53.7597 22.958 54.1331 22.958C54.7304 22.958 55.2344 23.1027 55.6451 23.392C56.0651 23.6813 56.3871 24.0873 56.6111 24.61C56.8351 25.1233 56.9471 25.7347 56.9471 26.444C56.9471 27.228 56.8024 27.9 56.5131 28.46C56.2237 29.0107 55.8457 29.4353 55.3791 29.734C54.9217 30.0233 54.4271 30.168 53.8951 30.168ZM53.5731 28.838C53.8904 28.838 54.1797 28.7493 54.4411 28.572C54.7024 28.3947 54.9077 28.1333 55.0571 27.788C55.2064 27.4333 55.2811 26.9947 55.2811 26.472C55.2811 26.0147 55.2251 25.6227 55.1131 25.296C55.0011 24.9693 54.8284 24.722 54.5951 24.554C54.3711 24.3767 54.0677 24.288 53.6851 24.288C53.4237 24.288 53.1577 24.3533 52.8871 24.484C52.6164 24.6147 52.3411 24.8247 52.0611 25.114V28.208C52.3131 28.432 52.5744 28.5953 52.8451 28.698C53.1157 28.7913 53.3584 28.838 53.5731 28.838ZM61.8836 30.168C61.2769 30.168 60.7123 30.028 60.1896 29.748C59.6669 29.4587 59.2423 29.048 58.9156 28.516C58.5889 27.9747 58.4256 27.326 58.4256 26.57C58.4256 25.8047 58.5889 25.156 58.9156 24.624C59.2423 24.0827 59.6669 23.672 60.1896 23.392C60.7123 23.1027 61.2769 22.958 61.8836 22.958C62.4903 22.958 63.0549 23.1027 63.5776 23.392C64.1003 23.672 64.5249 24.0827 64.8516 24.624C65.1783 25.156 65.3416 25.8047 65.3416 26.57C65.3416 27.326 65.1783 27.9747 64.8516 28.516C64.5249 29.048 64.1003 29.4587 63.5776 29.748C63.0549 30.028 62.4903 30.168 61.8836 30.168ZM61.8836 28.852C62.2569 28.852 62.5789 28.7587 62.8496 28.572C63.1203 28.3853 63.3256 28.1193 63.4656 27.774C63.6056 27.4287 63.6756 27.0273 63.6756 26.57C63.6756 26.1127 63.6056 25.7113 63.4656 25.366C63.3256 25.0207 63.1203 24.7547 62.8496 24.568C62.5789 24.372 62.2569 24.274 61.8836 24.274C61.5103 24.274 61.1883 24.372 60.9176 24.568C60.6563 24.7547 60.4509 25.0207 60.3016 25.366C60.1616 25.7113 60.0916 26.1127 60.0916 26.57C60.0916 27.0273 60.1616 27.4287 60.3016 27.774C60.4509 28.1193 60.6563 28.3853 60.9176 28.572C61.1883 28.7587 61.5103 28.852 61.8836 28.852ZM67.8981 30V23.126H69.2281L69.3681 24.68H69.4101C69.7555 24.12 70.1801 23.6953 70.6841 23.406C71.1975 23.1073 71.7481 22.958 72.3361 22.958C72.6161 22.958 72.8588 22.9813 73.0641 23.028C73.2695 23.0747 73.4701 23.1447 73.6661 23.238L73.3301 24.596C73.1061 24.5213 72.9055 24.47 72.7281 24.442C72.5601 24.4047 72.3455 24.386 72.0841 24.386C71.6175 24.386 71.1601 24.5213 70.7121 24.792C70.2735 25.0627 69.8768 25.534 69.5221 26.206V30H67.8981ZM78.6307 30V24.4H75.6487V23.126H80.2407V30H78.6307ZM79.3167 21.866C78.99 21.866 78.7147 21.768 78.4907 21.572C78.276 21.376 78.1687 21.1147 78.1687 20.788C78.1687 20.4613 78.276 20.2 78.4907 20.004C78.7147 19.7987 78.99 19.696 79.3167 19.696C79.6527 19.696 79.928 19.7987 80.1427 20.004C80.3573 20.2 80.4647 20.4613 80.4647 20.788C80.4647 21.1147 80.3573 21.376 80.1427 21.572C79.928 21.768 79.6527 21.866 79.3167 21.866ZM87.0672 30.168C86.4605 30.168 85.8959 30.028 85.3732 29.748C84.8505 29.4587 84.4259 29.048 84.0992 28.516C83.7725 27.9747 83.6092 27.326 83.6092 26.57C83.6092 25.8047 83.7725 25.156 84.0992 24.624C84.4259 24.0827 84.8505 23.672 85.3732 23.392C85.8959 23.1027 86.4605 22.958 87.0672 22.958C87.6739 22.958 88.2385 23.1027 88.7612 23.392C89.2839 23.672 89.7085 24.0827 90.0352 24.624C90.3619 25.156 90.5252 25.8047 90.5252 26.57C90.5252 27.326 90.3619 27.9747 90.0352 28.516C89.7085 29.048 89.2839 29.4587 88.7612 29.748C88.2385 30.028 87.6739 30.168 87.0672 30.168ZM87.0672 28.852C87.4405 28.852 87.7625 28.7587 88.0332 28.572C88.3039 28.3853 88.5092 28.1193 88.6492 27.774C88.7892 27.4287 88.8592 27.0273 88.8592 26.57C88.8592 26.1127 88.7892 25.7113 88.6492 25.366C88.5092 25.0207 88.3039 24.7547 88.0332 24.568C87.7625 24.372 87.4405 24.274 87.0672 24.274C86.6939 24.274 86.3719 24.372 86.1012 24.568C85.8399 24.7547 85.6345 25.0207 85.4852 25.366C85.3452 25.7113 85.2752 26.1127 85.2752 26.57C85.2752 27.0273 85.3452 27.4287 85.4852 27.774C85.6345 28.1193 85.8399 28.3853 86.1012 28.572C86.3719 28.7587 86.6939 28.852 87.0672 28.852Z" fill="black"/>
</g>
<defs>
<filter id="filter0_d_29_156" x="0" y="2" width="118" height="52" filterUnits="userSpaceOnUse" color-interpolation-filters="sRGB">
<feFlood flood-opacity="0" result="BackgroundImageFix"/>
<feColorMatrix in="SourceAlpha" type="matrix" values="0 0 0 0 0 0 0 0 0 0 0 0 0 0 0 0 0 0 127 0" result="hardAlpha"/>
<feOffset dx="-6" dy="6"/>
<feComposite in2="hardAlpha" operator="out"/>
<feColorMatrix type="matrix" values="0 0 0 0 0 0 0 0 0 0 0 0 0 0 0 0 0 0 1 0"/>
<feBlend mode="normal" in2="BackgroundImageFix" result="effect1_dropShadow_29_156"/>
<feBlend mode="normal" in="SourceGraphic" in2="effect1_dropShadow_29_156" result="shape"/>
</filter>
</defs>
</svg>
