<svg width="122" height="54" viewBox="0 0 122 54" fill="none" xmlns="http://www.w3.org/2000/svg">
<g filter="url(#filter0_d_29_147)">
<rect x="6" y="2" width="112" height="46" fill="#F4F4C3"/>
<rect x="7" y="3" width="110" height="44" stroke="black" stroke-width="2"/>
<path d="M36.336 30.168C35.832 30.168 35.3187 30.0513 34.796 29.818C34.2733 29.5847 33.8347 29.1973 33.48 28.656L34.432 27.648C34.7027 28.012 34.9967 28.2873 35.314 28.474C35.6407 28.6607 35.9673 28.754 36.294 28.754C36.854 28.754 37.2693 28.6093 37.54 28.32C37.8107 28.0213 37.946 27.5267 37.946 26.836V22.202H34.236V20.844H39.57V26.976C39.57 27.564 39.4673 28.1007 39.262 28.586C39.0567 29.062 38.7207 29.4447 38.254 29.734C37.7873 30.0233 37.148 30.168 36.336 30.168ZM44.1845 30.168C43.7365 30.168 43.3399 30.084 42.9945 29.916C42.6492 29.7387 42.3785 29.5007 42.1825 29.202C41.9865 28.9033 41.8885 28.5533 41.8885 28.152C41.8885 27.3867 42.2525 26.8033 42.9805 26.402C43.7179 25.9913 44.9359 25.7253 46.6345 25.604C46.6159 25.352 46.5459 25.1233 46.4245 24.918C46.3125 24.7127 46.1399 24.554 45.9065 24.442C45.6732 24.3207 45.3699 24.26 44.9965 24.26C44.7352 24.26 44.4785 24.2927 44.2265 24.358C43.9745 24.4233 43.7225 24.512 43.4705 24.624C43.2279 24.736 42.9852 24.8573 42.7425 24.988L42.1545 23.91C42.4345 23.742 42.7425 23.588 43.0785 23.448C43.4145 23.2987 43.7692 23.182 44.1425 23.098C44.5159 23.0047 44.8985 22.958 45.2905 22.958C45.9345 22.958 46.4712 23.0747 46.9005 23.308C47.3392 23.532 47.6705 23.868 47.8945 24.316C48.1279 24.7547 48.2445 25.2913 48.2445 25.926V30H46.9285L46.8025 29.146H46.7605C46.3965 29.426 45.9905 29.6687 45.5425 29.874C45.1039 30.07 44.6512 30.168 44.1845 30.168ZM44.6745 28.908C45.0199 28.908 45.3512 28.8333 45.6685 28.684C45.9952 28.5253 46.3172 28.32 46.6345 28.068V26.612C45.8132 26.668 45.1692 26.7613 44.7025 26.892C44.2359 27.0133 43.9092 27.172 43.7225 27.368C43.5359 27.564 43.4425 27.7833 43.4425 28.026C43.4425 28.2313 43.4985 28.3993 43.6105 28.53C43.7225 28.6607 43.8672 28.7587 44.0445 28.824C44.2312 28.88 44.4412 28.908 44.6745 28.908ZM53.5311 30.168C52.8871 30.168 52.2711 30.0653 51.6831 29.86C51.0951 29.6453 50.5864 29.3933 50.1571 29.104L50.8571 28.082C51.2677 28.3527 51.7111 28.5673 52.1871 28.726C52.6631 28.8753 53.1811 28.95 53.7411 28.95C54.2171 28.95 54.5671 28.8707 54.7911 28.712C55.0244 28.544 55.1411 28.348 55.1411 28.124C55.1411 28.012 55.1131 27.9093 55.0571 27.816C55.0104 27.7227 54.9217 27.6387 54.7911 27.564C54.6604 27.48 54.4691 27.4007 54.2171 27.326C53.9651 27.2513 53.6384 27.172 53.2371 27.088C52.3224 26.892 51.6504 26.626 51.2211 26.29C50.7917 25.954 50.5771 25.5293 50.5771 25.016C50.5771 24.4093 50.8384 23.9147 51.3611 23.532C51.8931 23.1493 52.6397 22.958 53.6011 22.958C54.1704 22.958 54.7024 23.0513 55.1971 23.238C55.7011 23.4247 56.1257 23.6347 56.4711 23.868L55.7291 24.862C55.4024 24.638 55.0431 24.47 54.6511 24.358C54.2591 24.2367 53.8624 24.176 53.4611 24.176C53.1531 24.176 52.9057 24.2087 52.7191 24.274C52.5417 24.3393 52.4064 24.4327 52.3131 24.554C52.2291 24.666 52.1871 24.792 52.1871 24.932C52.1871 25.1747 52.3271 25.3567 52.6071 25.478C52.8871 25.5993 53.3444 25.73 53.9791 25.87C54.7164 26.0287 55.2857 26.2107 55.6871 26.416C56.0884 26.612 56.3637 26.8407 56.5131 27.102C56.6717 27.354 56.7511 27.6667 56.7511 28.04C56.7511 28.432 56.6251 28.7913 56.3731 29.118C56.1304 29.4353 55.7711 29.692 55.2951 29.888C54.8191 30.0747 54.2311 30.168 53.5311 30.168ZM58.3276 30V23.126H59.5736L59.6996 23.994H59.7416C59.8909 23.6953 60.0823 23.448 60.3156 23.252C60.5489 23.056 60.8663 22.958 61.2676 22.958C61.5849 22.958 61.8509 23.056 62.0656 23.252C62.2803 23.4387 62.4296 23.7233 62.5136 24.106C62.6723 23.77 62.8729 23.4947 63.1156 23.28C63.3583 23.0653 63.6803 22.958 64.0816 22.958C64.5669 22.958 64.9403 23.1493 65.2016 23.532C65.4723 23.9053 65.6076 24.4373 65.6076 25.128V30H64.0536V25.24C64.0536 24.6333 63.8716 24.33 63.5076 24.33C63.3209 24.33 63.1623 24.4 63.0316 24.54C62.9103 24.68 62.7796 24.8993 62.6396 25.198V30H61.2956V25.24C61.2956 24.9413 61.2536 24.7173 61.1696 24.568C61.0856 24.4093 60.9456 24.33 60.7496 24.33C60.5723 24.33 60.4183 24.4 60.2876 24.54C60.1569 24.68 60.0263 24.8993 59.8956 25.198V30H58.3276ZM70.2361 30V24.4H67.2541V23.126H71.8461V30H70.2361ZM70.9221 21.866C70.5955 21.866 70.3201 21.768 70.0961 21.572C69.8815 21.376 69.7741 21.1147 69.7741 20.788C69.7741 20.4613 69.8815 20.2 70.0961 20.004C70.3201 19.7987 70.5955 19.696 70.9221 19.696C71.2581 19.696 71.5335 19.7987 71.7481 20.004C71.9628 20.2 72.0701 20.4613 72.0701 20.788C72.0701 21.1147 71.9628 21.376 71.7481 21.572C71.5335 21.768 71.2581 21.866 70.9221 21.866ZM75.6207 30V23.126H76.9507L77.0767 24.162H77.1327C77.4593 23.826 77.8187 23.5413 78.2107 23.308C78.612 23.0747 79.0787 22.958 79.6107 22.958C80.404 22.958 80.9873 23.2007 81.3607 23.686C81.734 24.1713 81.9207 24.8573 81.9207 25.744V30H80.2967V25.954C80.2967 25.4033 80.1987 24.9973 80.0027 24.736C79.8067 24.4747 79.4753 24.344 79.0087 24.344C78.6727 24.344 78.374 24.4233 78.1127 24.582C77.8513 24.7407 77.562 24.9833 77.2447 25.31V30H75.6207ZM87.4872 30.168C86.7872 30.168 86.1525 30.028 85.5832 29.748C85.0139 29.4587 84.5612 29.048 84.2252 28.516C83.8892 27.9747 83.7212 27.3213 83.7212 26.556C83.7212 25.8093 83.8892 25.17 84.2252 24.638C84.5612 24.0967 84.9999 23.6813 85.5412 23.392C86.0825 23.1027 86.6612 22.958 87.2772 22.958C87.9585 22.958 88.5325 23.098 88.9992 23.378C89.4752 23.658 89.8345 24.0453 90.0772 24.54C90.3292 25.0253 90.4552 25.5853 90.4552 26.22C90.4552 26.3787 90.4459 26.5327 90.4272 26.682C90.4179 26.822 90.4039 26.9387 90.3852 27.032H84.8832V25.884H89.3492L89.0412 26.248C89.0412 25.5667 88.8872 25.058 88.5792 24.722C88.2805 24.3767 87.8605 24.204 87.3192 24.204C86.9365 24.204 86.5912 24.2927 86.2832 24.47C85.9845 24.6473 85.7465 24.9133 85.5692 25.268C85.3919 25.6133 85.3032 26.0427 85.3032 26.556C85.3032 27.088 85.4012 27.5267 85.5972 27.872C85.8025 28.2173 86.0825 28.4787 86.4372 28.656C86.8012 28.8333 87.2212 28.922 87.6972 28.922C88.0612 28.922 88.3972 28.8707 88.7052 28.768C89.0132 28.6653 89.3212 28.5253 89.6292 28.348L90.1752 29.356C89.8112 29.5893 89.4005 29.7853 88.9432 29.944C88.4859 30.0933 88.0005 30.168 87.4872 30.168Z" fill="black"/>
</g>
<defs>
<filter id="filter0_d_29_147" x="0" y="2" width="118" height="52" filterUnits="userSpaceOnUse" color-interpolation-filters="sRGB">
<feFlood flood-opacity="0" result="BackgroundImageFix"/>
<feColorMatrix in="SourceAlpha" type="matrix" values="0 0 0 0 0 0 0 0 0 0 0 0 0 0 0 0 0 0 127 0" result="hardAlpha"/>
<feOffset dx="-6" dy="6"/>
<feComposite in2="hardAlpha" operator="out"/>
<feColorMatrix type="matrix" values="0 0 0 0 0 0 0 0 0 0 0 0 0 0 0 0 0 0 1 0"/>
<feBlend mode="normal" in2="BackgroundImageFix" result="effect1_dropShadow_29_147"/>
<feBlend mode="normal" in="SourceGraphic" in2="effect1_dropShadow_29_147" result="shape"/>
</filter>
</defs>
</svg>
