<svg width="122" height="54" viewBox="0 0 122 54" fill="none" xmlns="http://www.w3.org/2000/svg">
<g filter="url(#filter0_d_29_153)">
<rect x="6" y="2" width="112" height="46" fill="#F4F4C3"/>
<rect x="7" y="3" width="110" height="44" stroke="black" stroke-width="2"/>
<path d="M45.228 30.168C44.584 30.168 43.968 30.0513 43.38 29.818C42.792 29.5847 42.2693 29.2533 41.812 28.824L42.764 27.718C43.1093 28.026 43.5013 28.278 43.94 28.474C44.3787 28.6607 44.8407 28.754 45.326 28.754C45.858 28.754 46.264 28.6513 46.544 28.446C46.824 28.2313 46.964 27.9653 46.964 27.648C46.964 27.3773 46.8987 27.1627 46.768 27.004C46.6373 26.836 46.4553 26.696 46.222 26.584C45.998 26.472 45.732 26.3553 45.424 26.234L44.178 25.688C43.8607 25.5573 43.548 25.3893 43.24 25.184C42.9413 24.9787 42.694 24.7173 42.498 24.4C42.3113 24.0827 42.218 23.7 42.218 23.252C42.218 22.7667 42.3533 22.3327 42.624 21.95C42.8947 21.558 43.268 21.25 43.744 21.026C44.2293 20.7927 44.78 20.676 45.396 20.676C45.956 20.676 46.488 20.7833 46.992 20.998C47.5053 21.2033 47.9533 21.4833 48.336 21.838L47.496 22.874C47.188 22.622 46.8613 22.4307 46.516 22.3C46.18 22.16 45.7787 22.09 45.312 22.09C44.8827 22.09 44.5327 22.1833 44.262 22.37C43.9913 22.5567 43.856 22.8227 43.856 23.168C43.856 23.4013 43.9307 23.5927 44.08 23.742C44.2293 23.8913 44.4207 24.022 44.654 24.134C44.8967 24.246 45.1533 24.3533 45.424 24.456L46.628 24.974C47.02 25.1233 47.3653 25.3053 47.664 25.52C47.9627 25.7347 48.196 26.0007 48.364 26.318C48.532 26.626 48.616 27.004 48.616 27.452C48.616 27.9467 48.4807 28.3993 48.21 28.81C47.9393 29.2207 47.552 29.552 47.048 29.804C46.544 30.0467 45.9373 30.168 45.228 30.168ZM52.6705 30.168C51.8679 30.168 51.2845 29.9253 50.9205 29.44C50.5565 28.9547 50.3745 28.2687 50.3745 27.382V23.126H51.9845V27.172C51.9845 27.7227 52.0779 28.1287 52.2645 28.39C52.4605 28.6513 52.7965 28.782 53.2725 28.782C53.5899 28.782 53.8792 28.7073 54.1405 28.558C54.4112 28.3993 54.6959 28.1333 54.9945 27.76V23.126H56.6045V30H55.2885L55.1625 28.908H55.1065C54.7799 29.2813 54.4205 29.5847 54.0285 29.818C53.6365 30.0513 53.1839 30.168 52.6705 30.168ZM62.0311 30.168C61.3871 30.168 60.7711 30.0653 60.1831 29.86C59.5951 29.6453 59.0864 29.3933 58.6571 29.104L59.3571 28.082C59.7677 28.3527 60.2111 28.5673 60.6871 28.726C61.1631 28.8753 61.6811 28.95 62.2411 28.95C62.7171 28.95 63.0671 28.8707 63.2911 28.712C63.5244 28.544 63.6411 28.348 63.6411 28.124C63.6411 28.012 63.6131 27.9093 63.5571 27.816C63.5104 27.7227 63.4217 27.6387 63.2911 27.564C63.1604 27.48 62.9691 27.4007 62.7171 27.326C62.4651 27.2513 62.1384 27.172 61.7371 27.088C60.8224 26.892 60.1504 26.626 59.7211 26.29C59.2917 25.954 59.0771 25.5293 59.0771 25.016C59.0771 24.4093 59.3384 23.9147 59.8611 23.532C60.3931 23.1493 61.1397 22.958 62.1011 22.958C62.6704 22.958 63.2024 23.0513 63.6971 23.238C64.2011 23.4247 64.6257 23.6347 64.9711 23.868L64.2291 24.862C63.9024 24.638 63.5431 24.47 63.1511 24.358C62.7591 24.2367 62.3624 24.176 61.9611 24.176C61.6531 24.176 61.4057 24.2087 61.2191 24.274C61.0417 24.3393 60.9064 24.4327 60.8131 24.554C60.7291 24.666 60.6871 24.792 60.6871 24.932C60.6871 25.1747 60.8271 25.3567 61.1071 25.478C61.3871 25.5993 61.8444 25.73 62.4791 25.87C63.2164 26.0287 63.7857 26.2107 64.1871 26.416C64.5884 26.612 64.8637 26.8407 65.0131 27.102C65.1717 27.354 65.2511 27.6667 65.2511 28.04C65.2511 28.432 65.1251 28.7913 64.8731 29.118C64.6304 29.4353 64.2711 29.692 63.7951 29.888C63.3191 30.0747 62.7311 30.168 62.0311 30.168ZM67.3316 30V20.116H68.9556V22.664L68.8576 24.134H68.8996C69.1983 23.8167 69.5436 23.5413 69.9356 23.308C70.3369 23.0747 70.7989 22.958 71.3216 22.958C72.1149 22.958 72.6983 23.2007 73.0716 23.686C73.4449 24.1713 73.6316 24.8573 73.6316 25.744V30H72.0076V25.954C72.0076 25.4033 71.9096 24.9973 71.7136 24.736C71.5176 24.4747 71.1863 24.344 70.7196 24.344C70.3836 24.344 70.0849 24.4233 69.8236 24.582C69.5623 24.7407 69.2729 24.9833 68.9556 25.31V30H67.3316ZM78.7361 30V24.4H75.7541V23.126H80.3461V30H78.7361ZM79.4221 21.866C79.0955 21.866 78.8201 21.768 78.5961 21.572C78.3815 21.376 78.2741 21.1147 78.2741 20.788C78.2741 20.4613 78.3815 20.2 78.5961 20.004C78.8201 19.7987 79.0955 19.696 79.4221 19.696C79.7581 19.696 80.0335 19.7987 80.2481 20.004C80.4628 20.2 80.5701 20.4613 80.5701 20.788C80.5701 21.1147 80.4628 21.376 80.2481 21.572C80.0335 21.768 79.7581 21.866 79.4221 21.866Z" fill="black"/>
</g>
<defs>
<filter id="filter0_d_29_153" x="0" y="2" width="118" height="52" filterUnits="userSpaceOnUse" color-interpolation-filters="sRGB">
<feFlood flood-opacity="0" result="BackgroundImageFix"/>
<feColorMatrix in="SourceAlpha" type="matrix" values="0 0 0 0 0 0 0 0 0 0 0 0 0 0 0 0 0 0 127 0" result="hardAlpha"/>
<feOffset dx="-6" dy="6"/>
<feComposite in2="hardAlpha" operator="out"/>
<feColorMatrix type="matrix" values="0 0 0 0 0 0 0 0 0 0 0 0 0 0 0 0 0 0 1 0"/>
<feBlend mode="normal" in2="BackgroundImageFix" result="effect1_dropShadow_29_153"/>
<feBlend mode="normal" in="SourceGraphic" in2="effect1_dropShadow_29_153" result="shape"/>
</filter>
</defs>
</svg>
