<svg width="120" height="52" viewBox="0 0 120 52" fill="none" xmlns="http://www.w3.org/2000/svg">
<g filter="url(#filter0_d_29_140)">
<rect x="4" y="2" width="112" height="46" fill="#FFFFE9"/>
<rect x="5" y="3" width="110" height="44" stroke="black" stroke-width="2"/>
<path d="M43.228 30.168C42.584 30.168 41.968 30.0513 41.38 29.818C40.792 29.5847 40.2693 29.2533 39.812 28.824L40.764 27.718C41.1093 28.026 41.5013 28.278 41.94 28.474C42.3787 28.6607 42.8407 28.754 43.326 28.754C43.858 28.754 44.264 28.6513 44.544 28.446C44.824 28.2313 44.964 27.9653 44.964 27.648C44.964 27.3773 44.8987 27.1627 44.768 27.004C44.6373 26.836 44.4553 26.696 44.222 26.584C43.998 26.472 43.732 26.3553 43.424 26.234L42.178 25.688C41.8607 25.5573 41.548 25.3893 41.24 25.184C40.9413 24.9787 40.694 24.7173 40.498 24.4C40.3113 24.0827 40.218 23.7 40.218 23.252C40.218 22.7667 40.3533 22.3327 40.624 21.95C40.8947 21.558 41.268 21.25 41.744 21.026C42.2293 20.7927 42.78 20.676 43.396 20.676C43.956 20.676 44.488 20.7833 44.992 20.998C45.5053 21.2033 45.9533 21.4833 46.336 21.838L45.496 22.874C45.188 22.622 44.8613 22.4307 44.516 22.3C44.18 22.16 43.7787 22.09 43.312 22.09C42.8827 22.09 42.5327 22.1833 42.262 22.37C41.9913 22.5567 41.856 22.8227 41.856 23.168C41.856 23.4013 41.9307 23.5927 42.08 23.742C42.2293 23.8913 42.4207 24.022 42.654 24.134C42.8967 24.246 43.1533 24.3533 43.424 24.456L44.628 24.974C45.02 25.1233 45.3653 25.3053 45.664 25.52C45.9627 25.7347 46.196 26.0007 46.364 26.318C46.532 26.626 46.616 27.004 46.616 27.452C46.616 27.9467 46.4807 28.3993 46.21 28.81C45.9393 29.2207 45.552 29.552 45.048 29.804C44.544 30.0467 43.9373 30.168 43.228 30.168ZM48.5425 30V20.116H50.1665V22.664L50.0685 24.134H50.1105C50.4092 23.8167 50.7545 23.5413 51.1465 23.308C51.5479 23.0747 52.0099 22.958 52.5325 22.958C53.3259 22.958 53.9092 23.2007 54.2825 23.686C54.6559 24.1713 54.8425 24.8573 54.8425 25.744V30H53.2185V25.954C53.2185 25.4033 53.1205 24.9973 52.9245 24.736C52.7285 24.4747 52.3972 24.344 51.9305 24.344C51.5945 24.344 51.2959 24.4233 51.0345 24.582C50.7732 24.7407 50.4839 24.9833 50.1665 25.31V30H48.5425ZM59.9891 30.168C59.3824 30.168 58.8177 30.028 58.2951 29.748C57.7724 29.4587 57.3477 29.048 57.0211 28.516C56.6944 27.9747 56.5311 27.326 56.5311 26.57C56.5311 25.8047 56.6944 25.156 57.0211 24.624C57.3477 24.0827 57.7724 23.672 58.2951 23.392C58.8177 23.1027 59.3824 22.958 59.9891 22.958C60.5957 22.958 61.1604 23.1027 61.6831 23.392C62.2057 23.672 62.6304 24.0827 62.9571 24.624C63.2837 25.156 63.4471 25.8047 63.4471 26.57C63.4471 27.326 63.2837 27.9747 62.9571 28.516C62.6304 29.048 62.2057 29.4587 61.6831 29.748C61.1604 30.028 60.5957 30.168 59.9891 30.168ZM59.9891 28.852C60.3624 28.852 60.6844 28.7587 60.9551 28.572C61.2257 28.3853 61.4311 28.1193 61.5711 27.774C61.7111 27.4287 61.7811 27.0273 61.7811 26.57C61.7811 26.1127 61.7111 25.7113 61.5711 25.366C61.4311 25.0207 61.2257 24.7547 60.9551 24.568C60.6844 24.372 60.3624 24.274 59.9891 24.274C59.6157 24.274 59.2937 24.372 59.0231 24.568C58.7617 24.7547 58.5564 25.0207 58.4071 25.366C58.2671 25.7113 58.1971 26.1127 58.1971 26.57C58.1971 27.0273 58.2671 27.4287 58.4071 27.774C58.5564 28.1193 58.7617 28.3853 59.0231 28.572C59.2937 28.7587 59.6157 28.852 59.9891 28.852ZM66.0036 30V23.126H67.3336L67.4736 24.68H67.5156C67.8609 24.12 68.2856 23.6953 68.7896 23.406C69.3029 23.1073 69.8536 22.958 70.4416 22.958C70.7216 22.958 70.9643 22.9813 71.1696 23.028C71.3749 23.0747 71.5756 23.1447 71.7716 23.238L71.4356 24.596C71.2116 24.5213 71.0109 24.47 70.8336 24.442C70.6656 24.4047 70.4509 24.386 70.1896 24.386C69.7229 24.386 69.2656 24.5213 68.8176 24.792C68.3789 25.0627 67.9823 25.534 67.6276 26.206V30H66.0036ZM78.0521 30.168C77.3521 30.168 76.7968 30.0467 76.3861 29.804C75.9755 29.552 75.6815 29.2067 75.5041 28.768C75.3268 28.3293 75.2381 27.8207 75.2381 27.242V24.4H73.4041V23.196L75.3081 23.126L75.5181 20.97H76.8481V23.126H79.9841V24.4H76.8481V27.228C76.8481 27.6013 76.8995 27.914 77.0021 28.166C77.1048 28.4087 77.2728 28.5907 77.5061 28.712C77.7395 28.824 78.0475 28.88 78.4301 28.88C78.7288 28.88 78.9995 28.8567 79.2421 28.81C79.4848 28.7633 79.7181 28.698 79.9421 28.614L80.2501 29.776C79.9421 29.8787 79.6108 29.9673 79.2561 30.042C78.9015 30.126 78.5001 30.168 78.0521 30.168Z" fill="black"/>
</g>
<defs>
<filter id="filter0_d_29_140" x="0" y="2" width="116" height="50" filterUnits="userSpaceOnUse" color-interpolation-filters="sRGB">
<feFlood flood-opacity="0" result="BackgroundImageFix"/>
<feColorMatrix in="SourceAlpha" type="matrix" values="0 0 0 0 0 0 0 0 0 0 0 0 0 0 0 0 0 0 127 0" result="hardAlpha"/>
<feOffset dx="-4" dy="4"/>
<feComposite in2="hardAlpha" operator="out"/>
<feColorMatrix type="matrix" values="0 0 0 0 0 0 0 0 0 0 0 0 0 0 0 0 0 0 1 0"/>
<feBlend mode="normal" in2="BackgroundImageFix" result="effect1_dropShadow_29_140"/>
<feBlend mode="normal" in="SourceGraphic" in2="effect1_dropShadow_29_140" result="shape"/>
</filter>
</defs>
</svg>
