<svg width="122" height="54" viewBox="0 0 122 54" fill="none" xmlns="http://www.w3.org/2000/svg">
<g filter="url(#filter0_d_29_159)">
<rect x="6" y="2" width="112" height="46" fill="#F4F4C3"/>
<rect x="7" y="3" width="110" height="44" stroke="black" stroke-width="2"/>
<path d="M42.4 30L41.098 20.844H42.834L43.296 26.15C43.3147 26.402 43.3333 26.6447 43.352 26.878C43.3707 27.102 43.3847 27.3307 43.394 27.564C43.4033 27.7973 43.4127 28.0587 43.422 28.348H43.464C43.5107 28.0587 43.5573 27.7973 43.604 27.564C43.66 27.3307 43.7113 27.102 43.758 26.878C43.8047 26.6447 43.856 26.402 43.912 26.15L44.668 23.182H45.886L46.6 26.15C46.6653 26.402 46.7213 26.64 46.768 26.864C46.8147 27.088 46.8613 27.3213 46.908 27.564C46.9547 27.7973 47.0013 28.0587 47.048 28.348H47.104C47.1227 28.0587 47.1367 27.7973 47.146 27.564C47.1553 27.3213 47.1647 27.088 47.174 26.864C47.1833 26.64 47.1973 26.402 47.216 26.15L47.664 20.844H49.302L48.07 30H46.236L45.522 26.752C45.4567 26.4627 45.4007 26.178 45.354 25.898C45.3073 25.6087 45.2653 25.324 45.228 25.044H45.186C45.1487 25.324 45.1067 25.6087 45.06 25.898C45.0227 26.178 44.9713 26.4627 44.906 26.752L44.206 30H42.4ZM50.5425 30V20.116H52.1665V22.664L52.0685 24.134H52.1105C52.4092 23.8167 52.7545 23.5413 53.1465 23.308C53.5479 23.0747 54.0099 22.958 54.5325 22.958C55.3259 22.958 55.9092 23.2007 56.2825 23.686C56.6559 24.1713 56.8425 24.8573 56.8425 25.744V30H55.2185V25.954C55.2185 25.4033 55.1205 24.9973 54.9245 24.736C54.7285 24.4747 54.3972 24.344 53.9305 24.344C53.5945 24.344 53.2959 24.4233 53.0345 24.582C52.7732 24.7407 52.4839 24.9833 52.1665 25.31V30H50.5425ZM61.9891 30.168C61.3824 30.168 60.8177 30.028 60.2951 29.748C59.7724 29.4587 59.3477 29.048 59.0211 28.516C58.6944 27.9747 58.5311 27.326 58.5311 26.57C58.5311 25.8047 58.6944 25.156 59.0211 24.624C59.3477 24.0827 59.7724 23.672 60.2951 23.392C60.8177 23.1027 61.3824 22.958 61.9891 22.958C62.5957 22.958 63.1604 23.1027 63.6831 23.392C64.2057 23.672 64.6304 24.0827 64.9571 24.624C65.2837 25.156 65.4471 25.8047 65.4471 26.57C65.4471 27.326 65.2837 27.9747 64.9571 28.516C64.6304 29.048 64.2057 29.4587 63.6831 29.748C63.1604 30.028 62.5957 30.168 61.9891 30.168ZM61.9891 28.852C62.3624 28.852 62.6844 28.7587 62.9551 28.572C63.2257 28.3853 63.4311 28.1193 63.5711 27.774C63.7111 27.4287 63.7811 27.0273 63.7811 26.57C63.7811 26.1127 63.7111 25.7113 63.5711 25.366C63.4311 25.0207 63.2257 24.7547 62.9551 24.568C62.6844 24.372 62.3624 24.274 61.9891 24.274C61.6157 24.274 61.2937 24.372 61.0231 24.568C60.7617 24.7547 60.5564 25.0207 60.4071 25.366C60.2671 25.7113 60.1971 26.1127 60.1971 26.57C60.1971 27.0273 60.2671 27.4287 60.4071 27.774C60.5564 28.1193 60.7617 28.3853 61.0231 28.572C61.2937 28.7587 61.6157 28.852 61.9891 28.852ZM71.7836 30.168C70.9903 30.168 70.3836 29.9347 69.9636 29.468C69.5529 28.992 69.3476 28.334 69.3476 27.494V21.39H67.1076V20.116H70.9576V27.578C70.9576 28.0447 71.0743 28.376 71.3076 28.572C71.5503 28.7587 71.8443 28.852 72.1896 28.852C72.3669 28.852 72.5489 28.8333 72.7356 28.796C72.9223 28.7493 73.1323 28.6793 73.3656 28.586L73.7436 29.776C73.4169 29.888 73.1089 29.9813 72.8196 30.056C72.5396 30.1307 72.1943 30.168 71.7836 30.168ZM79.1981 30.168C78.4981 30.168 77.8635 30.028 77.2941 29.748C76.7248 29.4587 76.2721 29.048 75.9361 28.516C75.6001 27.9747 75.4321 27.3213 75.4321 26.556C75.4321 25.8093 75.6001 25.17 75.9361 24.638C76.2721 24.0967 76.7108 23.6813 77.2521 23.392C77.7935 23.1027 78.3721 22.958 78.9881 22.958C79.6695 22.958 80.2435 23.098 80.7101 23.378C81.1861 23.658 81.5455 24.0453 81.7881 24.54C82.0401 25.0253 82.1661 25.5853 82.1661 26.22C82.1661 26.3787 82.1568 26.5327 82.1381 26.682C82.1288 26.822 82.1148 26.9387 82.0961 27.032H76.5941V25.884H81.0601L80.7521 26.248C80.7521 25.5667 80.5981 25.058 80.2901 24.722C79.9915 24.3767 79.5715 24.204 79.0301 24.204C78.6475 24.204 78.3021 24.2927 77.9941 24.47C77.6955 24.6473 77.4575 24.9133 77.2801 25.268C77.1028 25.6133 77.0141 26.0427 77.0141 26.556C77.0141 27.088 77.1121 27.5267 77.3081 27.872C77.5135 28.2173 77.7935 28.4787 78.1481 28.656C78.5121 28.8333 78.9321 28.922 79.4081 28.922C79.7721 28.922 80.1081 28.8707 80.4161 28.768C80.7241 28.6653 81.0321 28.5253 81.3401 28.348L81.8861 29.356C81.5221 29.5893 81.1115 29.7853 80.6541 29.944C80.1968 30.0933 79.7115 30.168 79.1981 30.168Z" fill="black"/>
</g>
<defs>
<filter id="filter0_d_29_159" x="0" y="2" width="118" height="52" filterUnits="userSpaceOnUse" color-interpolation-filters="sRGB">
<feFlood flood-opacity="0" result="BackgroundImageFix"/>
<feColorMatrix in="SourceAlpha" type="matrix" values="0 0 0 0 0 0 0 0 0 0 0 0 0 0 0 0 0 0 127 0" result="hardAlpha"/>
<feOffset dx="-6" dy="6"/>
<feComposite in2="hardAlpha" operator="out"/>
<feColorMatrix type="matrix" values="0 0 0 0 0 0 0 0 0 0 0 0 0 0 0 0 0 0 1 0"/>
<feBlend mode="normal" in2="BackgroundImageFix" result="effect1_dropShadow_29_159"/>
<feBlend mode="normal" in="SourceGraphic" in2="effect1_dropShadow_29_159" result="shape"/>
</filter>
</defs>
</svg>
