<svg width="122" height="54" viewBox="0 0 122 54" fill="none" xmlns="http://www.w3.org/2000/svg">
<g filter="url(#filter0_d_29_150)">
<rect x="6" y="2" width="112" height="46" fill="#F4F4C3"/>
<rect x="7" y="3" width="110" height="44" stroke="black" stroke-width="2"/>
<path d="M33.704 30V20.844H36.546C37.1713 20.844 37.7267 20.9187 38.212 21.068C38.7067 21.208 39.094 21.4413 39.374 21.768C39.654 22.0947 39.794 22.538 39.794 23.098C39.794 23.5273 39.6633 23.9333 39.402 24.316C39.15 24.6893 38.7533 24.946 38.212 25.086V25.142C38.8747 25.254 39.3833 25.4873 39.738 25.842C40.0927 26.1967 40.27 26.6867 40.27 27.312C40.27 27.9187 40.1207 28.4227 39.822 28.824C39.5233 29.2253 39.108 29.524 38.576 29.72C38.0533 29.9067 37.456 30 36.784 30H33.704ZM35.328 24.61H36.406C37.0407 24.61 37.498 24.498 37.778 24.274C38.058 24.05 38.198 23.7233 38.198 23.294C38.198 22.874 38.0533 22.58 37.764 22.412C37.4747 22.2347 37.0313 22.146 36.434 22.146H35.328V24.61ZM35.328 28.698H36.616C37.288 28.698 37.7967 28.5813 38.142 28.348C38.4967 28.1053 38.674 27.7227 38.674 27.2C38.674 26.724 38.5013 26.3787 38.156 26.164C37.8107 25.9493 37.2973 25.842 36.616 25.842H35.328V28.698ZM44.1845 30.168C43.7365 30.168 43.3399 30.084 42.9945 29.916C42.6492 29.7387 42.3785 29.5007 42.1825 29.202C41.9865 28.9033 41.8885 28.5533 41.8885 28.152C41.8885 27.3867 42.2525 26.8033 42.9805 26.402C43.7179 25.9913 44.9359 25.7253 46.6345 25.604C46.6159 25.352 46.5459 25.1233 46.4245 24.918C46.3125 24.7127 46.1399 24.554 45.9065 24.442C45.6732 24.3207 45.3699 24.26 44.9965 24.26C44.7352 24.26 44.4785 24.2927 44.2265 24.358C43.9745 24.4233 43.7225 24.512 43.4705 24.624C43.2279 24.736 42.9852 24.8573 42.7425 24.988L42.1545 23.91C42.4345 23.742 42.7425 23.588 43.0785 23.448C43.4145 23.2987 43.7692 23.182 44.1425 23.098C44.5159 23.0047 44.8985 22.958 45.2905 22.958C45.9345 22.958 46.4712 23.0747 46.9005 23.308C47.3392 23.532 47.6705 23.868 47.8945 24.316C48.1279 24.7547 48.2445 25.2913 48.2445 25.926V30H46.9285L46.8025 29.146H46.7605C46.3965 29.426 45.9905 29.6687 45.5425 29.874C45.1039 30.07 44.6512 30.168 44.1845 30.168ZM44.6745 28.908C45.0199 28.908 45.3512 28.8333 45.6685 28.684C45.9952 28.5253 46.3172 28.32 46.6345 28.068V26.612C45.8132 26.668 45.1692 26.7613 44.7025 26.892C44.2359 27.0133 43.9092 27.172 43.7225 27.368C43.5359 27.564 43.4425 27.7833 43.4425 28.026C43.4425 28.2313 43.4985 28.3993 43.6105 28.53C43.7225 28.6607 43.8672 28.7587 44.0445 28.824C44.2312 28.88 44.4412 28.908 44.6745 28.908ZM53.5311 30.168C52.8871 30.168 52.2711 30.0653 51.6831 29.86C51.0951 29.6453 50.5864 29.3933 50.1571 29.104L50.8571 28.082C51.2677 28.3527 51.7111 28.5673 52.1871 28.726C52.6631 28.8753 53.1811 28.95 53.7411 28.95C54.2171 28.95 54.5671 28.8707 54.7911 28.712C55.0244 28.544 55.1411 28.348 55.1411 28.124C55.1411 28.012 55.1131 27.9093 55.0571 27.816C55.0104 27.7227 54.9217 27.6387 54.7911 27.564C54.6604 27.48 54.4691 27.4007 54.2171 27.326C53.9651 27.2513 53.6384 27.172 53.2371 27.088C52.3224 26.892 51.6504 26.626 51.2211 26.29C50.7917 25.954 50.5771 25.5293 50.5771 25.016C50.5771 24.4093 50.8384 23.9147 51.3611 23.532C51.8931 23.1493 52.6397 22.958 53.6011 22.958C54.1704 22.958 54.7024 23.0513 55.1971 23.238C55.7011 23.4247 56.1257 23.6347 56.4711 23.868L55.7291 24.862C55.4024 24.638 55.0431 24.47 54.6511 24.358C54.2591 24.2367 53.8624 24.176 53.4611 24.176C53.1531 24.176 52.9057 24.2087 52.7191 24.274C52.5417 24.3393 52.4064 24.4327 52.3131 24.554C52.2291 24.666 52.1871 24.792 52.1871 24.932C52.1871 25.1747 52.3271 25.3567 52.6071 25.478C52.8871 25.5993 53.3444 25.73 53.9791 25.87C54.7164 26.0287 55.2857 26.2107 55.6871 26.416C56.0884 26.612 56.3637 26.8407 56.5131 27.102C56.6717 27.354 56.7511 27.6667 56.7511 28.04C56.7511 28.432 56.6251 28.7913 56.3731 29.118C56.1304 29.4353 55.7711 29.692 55.2951 29.888C54.8191 30.0747 54.2311 30.168 53.5311 30.168ZM58.3276 30V23.126H59.5736L59.6996 23.994H59.7416C59.8909 23.6953 60.0823 23.448 60.3156 23.252C60.5489 23.056 60.8663 22.958 61.2676 22.958C61.5849 22.958 61.8509 23.056 62.0656 23.252C62.2803 23.4387 62.4296 23.7233 62.5136 24.106C62.6723 23.77 62.8729 23.4947 63.1156 23.28C63.3583 23.0653 63.6803 22.958 64.0816 22.958C64.5669 22.958 64.9403 23.1493 65.2016 23.532C65.4723 23.9053 65.6076 24.4373 65.6076 25.128V30H64.0536V25.24C64.0536 24.6333 63.8716 24.33 63.5076 24.33C63.3209 24.33 63.1623 24.4 63.0316 24.54C62.9103 24.68 62.7796 24.8993 62.6396 25.198V30H61.2956V25.24C61.2956 24.9413 61.2536 24.7173 61.1696 24.568C61.0856 24.4093 60.9456 24.33 60.7496 24.33C60.5723 24.33 60.4183 24.4 60.2876 24.54C60.1569 24.68 60.0263 24.8993 59.8956 25.198V30H58.3276ZM69.3681 30.168C68.9201 30.168 68.5235 30.084 68.1781 29.916C67.8328 29.7387 67.5621 29.5007 67.3661 29.202C67.1701 28.9033 67.0721 28.5533 67.0721 28.152C67.0721 27.3867 67.4361 26.8033 68.1641 26.402C68.9015 25.9913 70.1195 25.7253 71.8181 25.604C71.7995 25.352 71.7295 25.1233 71.6081 24.918C71.4961 24.7127 71.3235 24.554 71.0901 24.442C70.8568 24.3207 70.5535 24.26 70.1801 24.26C69.9188 24.26 69.6621 24.2927 69.4101 24.358C69.1581 24.4233 68.9061 24.512 68.6541 24.624C68.4115 24.736 68.1688 24.8573 67.9261 24.988L67.3381 23.91C67.6181 23.742 67.9261 23.588 68.2621 23.448C68.5981 23.2987 68.9528 23.182 69.3261 23.098C69.6995 23.0047 70.0821 22.958 70.4741 22.958C71.1181 22.958 71.6548 23.0747 72.0841 23.308C72.5228 23.532 72.8541 23.868 73.0781 24.316C73.3115 24.7547 73.4281 25.2913 73.4281 25.926V30H72.1121L71.9861 29.146H71.9441C71.5801 29.426 71.1741 29.6687 70.7261 29.874C70.2875 30.07 69.8348 30.168 69.3681 30.168ZM69.8581 28.908C70.2035 28.908 70.5348 28.8333 70.8521 28.684C71.1788 28.5253 71.5008 28.32 71.8181 28.068V26.612C70.9968 26.668 70.3528 26.7613 69.8861 26.892C69.4195 27.0133 69.0928 27.172 68.9061 27.368C68.7195 27.564 68.6261 27.7833 68.6261 28.026C68.6261 28.2313 68.6821 28.3993 68.7941 28.53C68.9061 28.6607 69.0508 28.7587 69.2281 28.824C69.4148 28.88 69.6248 28.908 69.8581 28.908ZM79.9467 30.168C79.2467 30.168 78.6913 30.0467 78.2807 29.804C77.87 29.552 77.576 29.2067 77.3987 28.768C77.2213 28.3293 77.1327 27.8207 77.1327 27.242V24.4H75.2987V23.196L77.2027 23.126L77.4127 20.97H78.7427V23.126H81.8787V24.4H78.7427V27.228C78.7427 27.6013 78.794 27.914 78.8967 28.166C78.9993 28.4087 79.1673 28.5907 79.4007 28.712C79.634 28.824 79.942 28.88 80.3247 28.88C80.6233 28.88 80.894 28.8567 81.1367 28.81C81.3793 28.7633 81.6127 28.698 81.8367 28.614L82.1447 29.776C81.8367 29.8787 81.5053 29.9673 81.1507 30.042C80.796 30.126 80.3947 30.168 79.9467 30.168ZM87.0252 30V24.4H84.0432V23.126H88.6352V30H87.0252ZM87.7112 21.866C87.3845 21.866 87.1092 21.768 86.8852 21.572C86.6705 21.376 86.5632 21.1147 86.5632 20.788C86.5632 20.4613 86.6705 20.2 86.8852 20.004C87.1092 19.7987 87.3845 19.696 87.7112 19.696C88.0472 19.696 88.3225 19.7987 88.5372 20.004C88.7519 20.2 88.8592 20.4613 88.8592 20.788C88.8592 21.1147 88.7519 21.376 88.5372 21.572C88.3225 21.768 88.0472 21.866 87.7112 21.866Z" fill="black"/>
</g>
<defs>
<filter id="filter0_d_29_150" x="0" y="2" width="118" height="52" filterUnits="userSpaceOnUse" color-interpolation-filters="sRGB">
<feFlood flood-opacity="0" result="BackgroundImageFix"/>
<feColorMatrix in="SourceAlpha" type="matrix" values="0 0 0 0 0 0 0 0 0 0 0 0 0 0 0 0 0 0 127 0" result="hardAlpha"/>
<feOffset dx="-6" dy="6"/>
<feComposite in2="hardAlpha" operator="out"/>
<feColorMatrix type="matrix" values="0 0 0 0 0 0 0 0 0 0 0 0 0 0 0 0 0 0 1 0"/>
<feBlend mode="normal" in2="BackgroundImageFix" result="effect1_dropShadow_29_150"/>
<feBlend mode="normal" in="SourceGraphic" in2="effect1_dropShadow_29_150" result="shape"/>
</filter>
</defs>
</svg>
