<svg width="185" height="185" viewBox="0 0 185 185" fill="none" xmlns="http://www.w3.org/2000/svg">
<path d="M109.54 1.5V10.5479H118.9V26.3398H103.524V17.3965H81.7725V53.5879H66.5V10.5479H75.7559V1.5H109.54Z" fill="#F30C59" stroke="black" stroke-width="3"/>
<path d="M75.86 182.588L75.86 173.54L66.4996 173.54L66.4996 157.748L81.8756 157.748L81.8756 166.692L103.628 166.692L103.628 130.5L118.9 130.5L118.9 173.54L109.644 173.54L109.644 182.588L75.86 182.588Z" fill="#F30C59" stroke="black" stroke-width="3"/>
<path d="M2.15598 75.2039L11.2038 75.2039L11.2038 65.8436L26.9958 65.8436L26.9958 81.2196L18.0525 81.2196L18.0525 102.972L54.2439 102.972L54.2439 118.244L11.2038 118.244L11.2038 108.988L2.15598 108.988L2.15598 75.2039Z" fill="#F30C59" stroke="black" stroke-width="3"/>
<path d="M183.244 108.884L174.196 108.884L174.196 118.244L158.404 118.244L158.404 102.868L167.348 102.868L167.348 81.1165L131.156 81.1165L131.156 65.844L174.196 65.844L174.196 75.0999L183.244 75.0999L183.244 108.884Z" fill="#F30C59" stroke="black" stroke-width="3"/>
<path d="M168.632 39.9274L162.234 46.3252L168.853 52.944L157.686 64.1106L146.814 53.2382L153.138 46.9142L137.757 31.5333L112.166 57.1245L101.366 46.3252L131.8 15.8913L138.345 22.4362L144.743 16.0384L168.632 39.9274Z" fill="#FFDD00" stroke="black" stroke-width="3"/>
<path d="M16.768 144.161L23.1658 137.763L16.547 131.144L27.7137 119.977L38.5861 130.85L32.2622 137.174L47.6432 152.555L73.2343 126.964L84.0336 137.763L53.5997 168.197L47.0548 161.652L40.657 168.05L16.768 144.161Z" fill="#FFDD00" stroke="black" stroke-width="3"/>
<path d="M40.5834 16.112L46.9812 22.5098L53.6 15.891L64.7666 27.0577L53.8942 37.9301L47.5703 31.6062L32.1893 46.9872L57.7805 72.5783L46.9812 83.3776L16.5473 52.9437L23.0922 46.3988L16.6944 40.001L40.5834 16.112Z" fill="#FFDD00" stroke="black" stroke-width="3"/>
<path d="M144.817 167.976L138.419 161.578L131.8 168.197L120.633 157.03L131.506 146.158L137.83 152.482L153.211 137.101L127.62 111.51L138.419 100.71L168.853 131.144L162.308 137.689L168.706 144.087L144.817 167.976Z" fill="#FFDD00" stroke="black" stroke-width="3"/>
</svg>
