<svg xmlns="http://www.w3.org/2000/svg" width="288" height="82" fill="none" viewBox="0 0 288 82">
  <g filter="url(#a)">
    <path fill="#FCFCF4" d="M20 18h112v46H20z"/>
    <path stroke="#000" stroke-width="2" d="M21 19h110v44H21z"/>
    <path fill="#000" d="M60.232 46v-1.316h2.478v-5.852h-1.974v-1.008c.373-.056.7-.117.98-.182a4.81 4.81 0 0 0 .756-.238c.233-.093.457-.196.672-.308h1.176v7.588h2.184V46h-6.272Zm11.362.168c-.391 0-.723-.135-.993-.406a1.395 1.395 0 0 1-.392-1.008c0-.41.13-.747.391-1.008.271-.27.603-.406.995-.406.4 0 .732.135.993.406.262.261.393.597.393 1.008 0 .401-.131.737-.392 1.008-.262.27-.593.406-.995.406Zm8.395 0c-.672 0-1.255-.182-1.75-.546-.495-.364-.877-.891-1.148-1.582-.27-.69-.406-1.535-.406-2.534 0-1.503.299-2.641.896-3.416.597-.775 1.4-1.162 2.408-1.162 1.017 0 1.82.387 2.408 1.162.597.775.896 1.913.896 3.416 0 .999-.135 1.843-.406 2.534-.261.69-.64 1.218-1.134 1.582-.495.364-1.083.546-1.764.546Zm0-1.26c.355 0 .672-.112.952-.336.28-.233.5-.597.658-1.092.159-.504.238-1.162.238-1.974s-.08-1.46-.238-1.946c-.159-.485-.378-.835-.658-1.05a1.524 1.524 0 0 0-.952-.322c-.355 0-.672.107-.952.322-.28.215-.5.565-.658 1.05-.159.485-.238 1.134-.238 1.946s.08 1.47.238 1.974c.159.495.378.859.658 1.092.28.224.597.336.952.336Zm0-2.464a.99.99 0 0 1-.686-.266c-.187-.177-.28-.42-.28-.728s.093-.55.28-.728a.99.99 0 0 1 .686-.266c.27 0 .5.089.686.266.187.177.28.42.28.728s-.093.55-.28.728a.959.959 0 0 1-.686.266Zm8.395 3.724c-.672 0-1.256-.182-1.75-.546-.495-.364-.878-.891-1.148-1.582-.271-.69-.406-1.535-.406-2.534 0-1.503.298-2.641.896-3.416.597-.775 1.4-1.162 2.408-1.162 1.017 0 1.82.387 2.408 1.162.597.775.896 1.913.896 3.416 0 .999-.136 1.843-.406 2.534-.262.69-.64 1.218-1.134 1.582-.495.364-1.083.546-1.764.546Zm0-1.26c.354 0 .672-.112.952-.336.28-.233.499-.597.658-1.092.158-.504.238-1.162.238-1.974s-.08-1.46-.238-1.946c-.16-.485-.378-.835-.658-1.05a1.524 1.524 0 0 0-.952-.322c-.355 0-.672.107-.952.322-.28.215-.5.565-.658 1.05-.16.485-.238 1.134-.238 1.946s.079 1.47.238 1.974c.158.495.378.859.658 1.092.28.224.597.336.952.336Zm0-2.464a.99.99 0 0 1-.686-.266c-.187-.177-.28-.42-.28-.728s.093-.55.28-.728a.99.99 0 0 1 .686-.266c.27 0 .499.089.686.266.186.177.28.42.28.728s-.094.55-.28.728a.959.959 0 0 1-.686.266Z"/>
  </g>
  <g filter="url(#b)">
    <path fill="#FCFCF4" d="M158 16h112v46H158z"/>
    <path stroke="#000" stroke-width="2" d="M159 17h110v44H159z"/>
    <path fill="#000" d="M198.232 44v-1.316h2.478v-5.852h-1.974v-1.008c.373-.056.7-.117.98-.182a4.81 4.81 0 0 0 .756-.238c.233-.093.457-.196.672-.308h1.176v7.588h2.184V44h-6.272Zm11.363.168a1.35 1.35 0 0 1-.994-.406 1.392 1.392 0 0 1-.392-1.008c0-.41.13-.747.392-1.008.27-.27.602-.406.994-.406.401 0 .732.135.994.406.261.261.392.597.392 1.008 0 .401-.131.737-.392 1.008-.262.27-.593.406-.994.406Zm8.394 0c-.672 0-1.255-.182-1.75-.546-.495-.364-.877-.891-1.148-1.582-.271-.69-.406-1.535-.406-2.534 0-1.503.299-2.641.896-3.416.597-.775 1.4-1.162 2.408-1.162 1.017 0 1.82.387 2.408 1.162.597.775.896 1.913.896 3.416 0 .999-.135 1.843-.406 2.534-.261.69-.639 1.218-1.134 1.582-.495.364-1.083.546-1.764.546Zm0-1.26c.355 0 .672-.112.952-.336.28-.233.499-.597.658-1.092.159-.504.238-1.162.238-1.974s-.079-1.46-.238-1.946c-.159-.485-.378-.835-.658-1.05a1.523 1.523 0 0 0-.952-.322c-.355 0-.672.107-.952.322-.28.215-.499.565-.658 1.05-.159.485-.238 1.134-.238 1.946s.079 1.47.238 1.974c.159.495.378.859.658 1.092.28.224.597.336.952.336Zm0-2.464a.991.991 0 0 1-.686-.266c-.187-.177-.28-.42-.28-.728s.093-.55.28-.728a.991.991 0 0 1 .686-.266.96.96 0 0 1 .686.266c.187.177.28.42.28.728s-.093.55-.28.728a.959.959 0 0 1-.686.266Zm8.395 3.724c-.672 0-1.256-.182-1.75-.546-.495-.364-.878-.891-1.148-1.582-.271-.69-.406-1.535-.406-2.534 0-1.503.298-2.641.896-3.416.597-.775 1.4-1.162 2.408-1.162 1.017 0 1.82.387 2.408 1.162.597.775.896 1.913.896 3.416 0 .999-.136 1.843-.406 2.534-.262.69-.64 1.218-1.134 1.582-.495.364-1.083.546-1.764.546Zm0-1.26c.354 0 .672-.112.952-.336.28-.233.499-.597.658-1.092.158-.504.238-1.162.238-1.974s-.08-1.46-.238-1.946c-.159-.485-.378-.835-.658-1.05a1.525 1.525 0 0 0-.952-.322c-.355 0-.672.107-.952.322-.28.215-.5.565-.658 1.05-.159.485-.238 1.134-.238 1.946s.079 1.47.238 1.974c.158.495.378.859.658 1.092.28.224.597.336.952.336Zm0-2.464a.99.99 0 0 1-.686-.266c-.187-.177-.28-.42-.28-.728s.093-.55.28-.728a.99.99 0 0 1 .686-.266.96.96 0 0 1 .686.266c.186.177.28.42.28.728s-.094.55-.28.728a.96.96 0 0 1-.686.266Z"/>
  </g>
  <defs>
    <filter id="a" width="116" height="50" x="16" y="18" color-interpolation-filters="sRGB" filterUnits="userSpaceOnUse">
      <feFlood flood-opacity="0" result="BackgroundImageFix"/>
      <feColorMatrix in="SourceAlpha" result="hardAlpha" values="0 0 0 0 0 0 0 0 0 0 0 0 0 0 0 0 0 0 127 0"/>
      <feOffset dx="-4" dy="4"/>
      <feComposite in2="hardAlpha" operator="out"/>
      <feColorMatrix values="0 0 0 0 0 0 0 0 0 0 0 0 0 0 0 0 0 0 1 0"/>
      <feBlend in2="BackgroundImageFix" result="effect1_dropShadow_10_414"/>
      <feBlend in="SourceGraphic" in2="effect1_dropShadow_10_414" result="shape"/>
    </filter>
    <filter id="b" width="118" height="52" x="152" y="16" color-interpolation-filters="sRGB" filterUnits="userSpaceOnUse">
      <feFlood flood-opacity="0" result="BackgroundImageFix"/>
      <feColorMatrix in="SourceAlpha" result="hardAlpha" values="0 0 0 0 0 0 0 0 0 0 0 0 0 0 0 0 0 0 127 0"/>
      <feOffset dx="-6" dy="6"/>
      <feComposite in2="hardAlpha" operator="out"/>
      <feColorMatrix values="0 0 0 0 0 0 0 0 0 0 0 0 0 0 0 0 0 0 1 0"/>
      <feBlend in2="BackgroundImageFix" result="effect1_dropShadow_10_414"/>
      <feBlend in="SourceGraphic" in2="effect1_dropShadow_10_414" result="shape"/>
    </filter>
  </defs>
</svg>
