<svg xmlns="http://www.w3.org/2000/svg" width="184" height="184" fill="none" viewBox="0 0 184 184">
  <path fill="#544FCD" d="m46.086 12.447-5.042 18.878a9.023 9.023 0 0 1 5.696 2.633 9.045 9.045 0 0 1 .636 12.128c-.194.238-.436.43-.658.651-3.55 3.55-9.215 3.584-12.765.035-1.612-1.612-2.458-3.675-2.617-5.776l-18.888 5.12 5.035 18.794c.309-.149.642-.267.969-.379a9.22 9.22 0 0 1 5.356-.187c4.546 1.218 7.34 5.684 6.603 10.232-.049.303-.154.592-.235.895-1.3 4.85-6.223 7.653-11.072 6.354a8.984 8.984 0 0 1-5.128-3.618L.203 92l13.791 13.773c1.18-1.71 2.919-3.04 5.09-3.622 4.547-1.218 9.232 1.218 10.868 5.525.11.287.156.584.238.887a9.053 9.053 0 0 1-6.412 11.106c-2.171.582-4.343.3-6.219-.592l-5.113 18.838 18.894 5.098c.157-2.092 1.015-4.15 2.618-5.752 1.248-1.248 2.726-2.092 4.33-2.467 2.671-.625 5.567.011 7.799 1.831.238.194.43.435.65.657 3.55 3.55 3.585 9.215.035 12.766-1.612 1.612-3.675 2.457-5.775 2.617l5.12 18.888 18.848-5.05c-.912-1.899-1.21-4.108-.62-6.31.913-3.41 3.636-5.832 6.864-6.533a9.08 9.08 0 0 1 3.368-.07c.303.048.536.169.839.25 4.85 1.299 7.708 6.207 6.409 11.057-.58 2.163-1.93 3.89-3.632 5.073l13.806 13.828 13.773-13.791c-1.71-1.18-3.04-2.919-3.622-5.09-1.218-4.546 1.218-9.232 5.525-10.868.287-.109.584-.157.887-.238a9.053 9.053 0 0 1 11.106 6.412c.582 2.171.3 4.342-.592 6.219l18.838 5.112 5.042-18.878a8.98 8.98 0 0 1-5.696-2.633c-3.55-3.55-3.599-9.271-.049-12.821 1.332-1.331 2.957-2.175 4.678-2.501a9.107 9.107 0 0 1 8.158 2.508 9.001 9.001 0 0 1 2.617 5.775l18.888-5.121-5.05-18.847c-1.898.912-4.108 1.211-6.31.621a9.066 9.066 0 0 1-6.423-11.113c.812-3.03 3.059-5.252 5.826-6.195a9.065 9.065 0 0 1 5.301-.173c2.163.58 3.891 1.93 5.073 3.632l13.828-13.806-13.791-13.773c-1.179 1.71-2.919 3.04-5.09 3.622-4.849 1.3-9.862-1.548-11.161-6.397-1.3-4.85 1.618-9.821 6.467-11.12 2.171-.583 4.343-.3 6.219.59l5.113-18.837-18.879-5.042a8.98 8.98 0 0 1-2.633 5.696c-3.55 3.55-9.271 3.599-12.821.049-3.55-3.55-3.542-9.286.008-12.836a9.037 9.037 0 0 1 4.677-2.5c.357-.07.721-.146 1.083-.172l-5.105-18.833-18.849 5.05a9 9 0 0 1 .621 6.31 9.066 9.066 0 0 1-11.112 6.424c-4.849-1.3-7.668-6.279-6.368-11.128a9.02 9.02 0 0 1 3.617-5.128L92.002.203 78.229 13.994c1.71 1.18 3.04 2.919 3.621 5.09 1.3 4.85-1.547 9.862-6.396 11.16-4.85 1.3-9.822-1.617-11.121-6.466-.582-2.171-.3-4.343.591-6.219l-18.838-5.113ZM86.41 39.43c1.82-.535 3.726-.79 5.611-.79 5.027 0 10.041 1.872 13.892 5.724l33.701 33.749c7.704 7.703 7.726 20.096.022 27.8l-33.749 33.701c-7.704 7.703-20.097 7.725-27.8.022l-33.7-33.749c-7.705-7.704-7.727-20.096-.023-27.8l33.749-33.7c2.407-2.408 5.264-4.066 8.297-4.957Zm-3.08 24.65c-11.891 3.698-20.564 14.8-20.564 27.91 0 16.137 13.088 29.244 29.226 29.244 16.137 0 29.244-13.088 29.244-29.225S108.147 62.765 92.01 62.765a29.142 29.142 0 0 0-8.678 1.315Z"/>
</svg>
