<svg xmlns="http://www.w3.org/2000/svg" width="288" height="82" fill="none" viewBox="0 0 288 82">
  <g filter="url(#a)">
    <path fill="#FFFFE9" d="M20 18h112v46H20z"/>
    <path stroke="#000" stroke-width="2" d="M21 19h110v44H21z"/>
    <path fill="#000" d="M39.82 46v-6.874h1.33l.14 1.554h.042c.345-.56.77-.985 1.274-1.274a3.23 3.23 0 0 1 1.652-.448c.28 0 .523.023.728.07.205.047.406.117.602.21l-.336 1.358a3.811 3.811 0 0 0-.602-.154 3.054 3.054 0 0 0-.644-.056c-.467 0-.924.135-1.372.406-.439.27-.835.742-1.19 1.414V46H39.82Zm10.733 0v-5.6H47.57v-1.274h4.592V46h-1.61Zm.686-8.134a1.21 1.21 0 0 1-.826-.294c-.215-.196-.322-.457-.322-.784s.107-.588.322-.784c.224-.205.499-.308.826-.308.336 0 .61.103.826.308.214.196.322.457.322.784s-.108.588-.322.784c-.215.196-.49.294-.826.294Zm8.366 8.302c-.719 0-1.367-.14-1.946-.42-.57-.29-1.022-.7-1.358-1.232-.327-.541-.49-1.19-.49-1.946 0-.765.177-1.414.532-1.946a3.489 3.489 0 0 1 1.442-1.232 4.374 4.374 0 0 1 1.932-.434c.56 0 1.055.093 1.484.28.43.177.784.406 1.064.686l-.77 1.008a3.317 3.317 0 0 0-.826-.49 2.248 2.248 0 0 0-.868-.168c-.457 0-.863.098-1.218.294a2.024 2.024 0 0 0-.812.798c-.196.345-.294.747-.294 1.204 0 .457.093.859.28 1.204.196.345.462.611.798.798.345.187.747.28 1.204.28.392 0 .751-.075 1.078-.224.327-.15.62-.327.882-.532l.672 1.036a4.23 4.23 0 0 1-1.316.77 4.257 4.257 0 0 1-1.47.266Zm8.199 0c-.7 0-1.335-.14-1.904-.42-.57-.29-1.022-.7-1.358-1.232-.336-.541-.504-1.195-.504-1.96 0-.747.168-1.386.504-1.918a3.438 3.438 0 0 1 1.316-1.246 3.628 3.628 0 0 1 1.736-.434c.68 0 1.255.14 1.722.42a2.7 2.7 0 0 1 1.078 1.162c.252.485.378 1.045.378 1.68 0 .159-.01.313-.028.462-.01.14-.024.257-.042.35H65.2v-1.148h4.466l-.308.364c0-.681-.154-1.19-.462-1.526-.3-.345-.72-.518-1.26-.518-.383 0-.728.089-1.036.266a1.868 1.868 0 0 0-.714.798c-.178.345-.266.775-.266 1.288 0 .532.098.97.294 1.316a2 2 0 0 0 .84.784c.364.177.784.266 1.26.266.364 0 .7-.051 1.008-.154.308-.103.616-.243.924-.42l.546 1.008c-.364.233-.775.43-1.232.588-.458.15-.943.224-1.456.224Zm17.643 0c-.7 0-1.256-.121-1.666-.364a2.122 2.122 0 0 1-.882-1.036c-.178-.439-.266-.947-.266-1.526V40.4h-1.834v-1.204l1.904-.07.21-2.156h1.33v2.156h3.136V40.4h-3.136v2.828c0 .373.051.686.154.938.102.243.27.425.504.546.233.112.541.168.924.168.298 0 .569-.023.812-.07a4.31 4.31 0 0 0 .7-.196l.308 1.162c-.308.103-.64.191-.994.266a5.242 5.242 0 0 1-1.204.126Zm4.838 2.66c-.177 0-.355-.014-.532-.042a4.1 4.1 0 0 1-.448-.098l.308-1.26c.094.028.187.051.28.07.103.019.2.028.294.028.439 0 .789-.112 1.05-.336.262-.224.462-.504.602-.84l.168-.434-3.08-6.79h1.61l1.414 3.374a62.808 62.808 0 0 1 .756 2.016h.056c.112-.327.224-.663.336-1.008.121-.355.238-.69.35-1.008l1.246-3.374h1.526l-2.87 7.182a5.393 5.393 0 0 1-.686 1.33 2.84 2.84 0 0 1-.98.882c-.383.205-.85.308-1.4.308Zm7.625-.112v-9.59h1.33l.126.784h.042c.298-.28.639-.509 1.022-.686a2.833 2.833 0 0 1 1.176-.266c.606 0 1.115.145 1.526.434.41.29.728.695.952 1.218.224.523.336 1.139.336 1.848 0 .784-.145 1.451-.434 2.002-.29.55-.668.975-1.134 1.274a2.72 2.72 0 0 1-1.484.434c-.308 0-.63-.07-.966-.21a3.13 3.13 0 0 1-.91-.602h-.042l.084 1.204v2.156H97.91Zm3.122-3.878c.326 0 .62-.089.882-.266.261-.177.466-.439.616-.784.149-.355.224-.793.224-1.316 0-.457-.056-.85-.168-1.176-.112-.327-.285-.574-.518-.742-.224-.177-.528-.266-.91-.266-.262 0-.528.065-.798.196-.271.13-.546.34-.826.63v3.094c.252.224.513.387.784.49.27.093.508.14.714.14Zm8.744 1.33c-.7 0-1.334-.14-1.904-.42a3.395 3.395 0 0 1-1.358-1.232c-.336-.541-.504-1.195-.504-1.96 0-.747.168-1.386.504-1.918a3.44 3.44 0 0 1 1.316-1.246 3.63 3.63 0 0 1 1.736-.434c.682 0 1.256.14 1.722.42.476.28.836.667 1.078 1.162.252.485.378 1.045.378 1.68 0 .159-.009.313-.028.462-.009.14-.023.257-.042.35h-5.502v-1.148h4.466l-.308.364c0-.681-.154-1.19-.462-1.526-.298-.345-.718-.518-1.26-.518a2.04 2.04 0 0 0-1.036.266 1.877 1.877 0 0 0-.714.798c-.177.345-.266.775-.266 1.288 0 .532.098.97.294 1.316.206.345.486.607.84.784.364.177.784.266 1.26.266.364 0 .7-.051 1.008-.154.308-.103.616-.243.924-.42l.546 1.008c-.364.233-.774.43-1.232.588-.457.15-.942.224-1.456.224Z"/>
  </g>
  <g filter="url(#b)">
    <path fill="#FFFFE9" d="M158 16h112v46H158z"/>
    <path stroke="#000" stroke-width="2" d="M159 17h110v44H159z"/>
    <path fill="#000" d="M177.82 44v-6.874h1.33l.14 1.554h.042c.345-.56.77-.985 1.274-1.274a3.23 3.23 0 0 1 1.652-.448c.28 0 .523.023.728.07.205.047.406.117.602.21l-.336 1.358a3.82 3.82 0 0 0-.602-.154 3.056 3.056 0 0 0-.644-.056c-.467 0-.924.135-1.372.406-.439.27-.835.742-1.19 1.414V44h-1.624Zm10.733 0v-5.6h-2.982v-1.274h4.592V44h-1.61Zm.686-8.134a1.21 1.21 0 0 1-.826-.294c-.215-.196-.322-.457-.322-.784s.107-.588.322-.784c.224-.205.499-.308.826-.308.336 0 .611.103.826.308.214.196.322.457.322.784s-.108.588-.322.784c-.215.196-.49.294-.826.294Zm8.366 8.302c-.719 0-1.367-.14-1.946-.42a3.395 3.395 0 0 1-1.358-1.232c-.327-.541-.49-1.19-.49-1.946 0-.765.177-1.414.532-1.946a3.491 3.491 0 0 1 1.442-1.232 4.372 4.372 0 0 1 1.932-.434c.56 0 1.055.093 1.484.28a3.22 3.22 0 0 1 1.064.686l-.77 1.008a3.322 3.322 0 0 0-.826-.49 2.249 2.249 0 0 0-.868-.168c-.457 0-.863.098-1.218.294a2.027 2.027 0 0 0-.812.798c-.196.345-.294.747-.294 1.204 0 .457.093.859.28 1.204.196.345.462.611.798.798.345.187.747.28 1.204.28.392 0 .751-.075 1.078-.224a4.37 4.37 0 0 0 .882-.532l.672 1.036a4.247 4.247 0 0 1-1.316.77 4.253 4.253 0 0 1-1.47.266Zm8.199 0c-.7 0-1.335-.14-1.904-.42-.57-.29-1.022-.7-1.358-1.232-.336-.541-.504-1.195-.504-1.96 0-.747.168-1.386.504-1.918a3.433 3.433 0 0 1 1.316-1.246 3.628 3.628 0 0 1 1.736-.434c.681 0 1.255.14 1.722.42a2.7 2.7 0 0 1 1.078 1.162c.252.485.378 1.045.378 1.68 0 .159-.01.313-.028.462a3.04 3.04 0 0 1-.042.35H203.2v-1.148h4.466l-.308.364c0-.681-.154-1.19-.462-1.526-.299-.345-.719-.518-1.26-.518-.383 0-.728.089-1.036.266a1.864 1.864 0 0 0-.714.798c-.178.345-.266.775-.266 1.288 0 .532.098.97.294 1.316.205.345.485.607.84.784.364.177.784.266 1.26.266.364 0 .7-.051 1.008-.154.308-.103.616-.243.924-.42l.546 1.008a5.8 5.8 0 0 1-1.232.588c-.458.15-.943.224-1.456.224Zm17.643 0c-.7 0-1.256-.121-1.666-.364a2.118 2.118 0 0 1-.882-1.036c-.178-.439-.266-.947-.266-1.526V38.4h-1.834v-1.204l1.904-.07.21-2.156h1.33v2.156h3.136V38.4h-3.136v2.828c0 .373.051.686.154.938.102.243.27.425.504.546.233.112.541.168.924.168.298 0 .569-.023.812-.07.242-.047.476-.112.7-.196l.308 1.162c-.308.103-.64.191-.994.266a5.244 5.244 0 0 1-1.204.126Zm4.838 2.66c-.177 0-.354-.014-.532-.042a4.116 4.116 0 0 1-.448-.098l.308-1.26c.094.028.187.051.28.07.103.019.201.028.294.028.439 0 .789-.112 1.05-.336.262-.224.462-.504.602-.84l.168-.434-3.08-6.79h1.61l1.414 3.374a61.67 61.67 0 0 1 .756 2.016h.056c.112-.327.224-.663.336-1.008a141 141 0 0 1 .35-1.008l1.246-3.374h1.526l-2.87 7.182a5.36 5.36 0 0 1-.686 1.33c-.27.383-.597.677-.98.882-.382.205-.849.308-1.4.308Zm7.625-.112v-9.59h1.33l.126.784h.042c.298-.28.639-.509 1.022-.686a2.833 2.833 0 0 1 1.176-.266c.606 0 1.115.145 1.526.434.41.29.728.695.952 1.218.224.523.336 1.139.336 1.848 0 .784-.145 1.451-.434 2.002-.29.55-.668.975-1.134 1.274a2.72 2.72 0 0 1-1.484.434c-.308 0-.63-.07-.966-.21a3.13 3.13 0 0 1-.91-.602h-.042l.084 1.204v2.156h-1.624Zm3.122-3.878c.326 0 .62-.089.882-.266.261-.177.466-.439.616-.784.149-.355.224-.793.224-1.316 0-.457-.056-.85-.168-1.176-.112-.327-.285-.574-.518-.742-.224-.177-.528-.266-.91-.266-.262 0-.528.065-.798.196-.271.13-.546.34-.826.63v3.094c.252.224.513.387.784.49.27.093.508.14.714.14Zm8.744 1.33c-.7 0-1.334-.14-1.904-.42a3.395 3.395 0 0 1-1.358-1.232c-.336-.541-.504-1.195-.504-1.96 0-.747.168-1.386.504-1.918a3.44 3.44 0 0 1 1.316-1.246 3.63 3.63 0 0 1 1.736-.434c.682 0 1.256.14 1.722.42.476.28.836.667 1.078 1.162.252.485.378 1.045.378 1.68 0 .159-.009.313-.028.462-.009.14-.023.257-.042.35h-5.502v-1.148h4.466l-.308.364c0-.681-.154-1.19-.462-1.526-.298-.345-.718-.518-1.26-.518a2.04 2.04 0 0 0-1.036.266 1.877 1.877 0 0 0-.714.798c-.177.345-.266.775-.266 1.288 0 .532.098.97.294 1.316.206.345.486.607.84.784.364.177.784.266 1.26.266.364 0 .7-.051 1.008-.154.308-.103.616-.243.924-.42l.546 1.008c-.364.233-.774.43-1.232.588-.457.15-.942.224-1.456.224Z"/>
  </g>
  <defs>
    <filter id="a" width="116" height="50" x="16" y="18" color-interpolation-filters="sRGB" filterUnits="userSpaceOnUse">
      <feFlood flood-opacity="0" result="BackgroundImageFix"/>
      <feColorMatrix in="SourceAlpha" result="hardAlpha" values="0 0 0 0 0 0 0 0 0 0 0 0 0 0 0 0 0 0 127 0"/>
      <feOffset dx="-4" dy="4"/>
      <feComposite in2="hardAlpha" operator="out"/>
      <feColorMatrix values="0 0 0 0 0 0 0 0 0 0 0 0 0 0 0 0 0 0 1 0"/>
      <feBlend in2="BackgroundImageFix" result="effect1_dropShadow_10_344"/>
      <feBlend in="SourceGraphic" in2="effect1_dropShadow_10_344" result="shape"/>
    </filter>
    <filter id="b" width="118" height="52" x="152" y="16" color-interpolation-filters="sRGB" filterUnits="userSpaceOnUse">
      <feFlood flood-opacity="0" result="BackgroundImageFix"/>
      <feColorMatrix in="SourceAlpha" result="hardAlpha" values="0 0 0 0 0 0 0 0 0 0 0 0 0 0 0 0 0 0 127 0"/>
      <feOffset dx="-6" dy="6"/>
      <feComposite in2="hardAlpha" operator="out"/>
      <feColorMatrix values="0 0 0 0 0 0 0 0 0 0 0 0 0 0 0 0 0 0 1 0"/>
      <feBlend in2="BackgroundImageFix" result="effect1_dropShadow_10_344"/>
      <feBlend in="SourceGraphic" in2="effect1_dropShadow_10_344" result="shape"/>
    </filter>
  </defs>
</svg>
