<svg width="120" height="52" viewBox="0 0 120 52" fill="none" xmlns="http://www.w3.org/2000/svg">
<g filter="url(#filter0_d_29_134)">
<rect x="4" y="2" width="112" height="46" fill="#FFFFE9"/>
<rect x="5" y="3" width="110" height="44" stroke="black" stroke-width="2"/>
<path d="M30.78 30L33.748 20.844H35.652L38.62 30H36.898L35.512 25.128C35.3813 24.6427 35.2413 24.1433 35.092 23.63C34.952 23.1167 34.8213 22.608 34.7 22.104H34.644C34.5133 22.608 34.378 23.1167 34.238 23.63C34.1073 24.1433 33.972 24.6427 33.832 25.128L32.432 30H30.78ZM32.53 27.522V26.248H36.828V27.522H32.53ZM40.7145 30V23.126H42.0445L42.1845 24.68H42.2265C42.5719 24.12 42.9965 23.6953 43.5005 23.406C44.0139 23.1073 44.5645 22.958 45.1525 22.958C45.4325 22.958 45.6752 22.9813 45.8805 23.028C46.0859 23.0747 46.2865 23.1447 46.4825 23.238L46.1465 24.596C45.9225 24.5213 45.7219 24.47 45.5445 24.442C45.3765 24.4047 45.1619 24.386 44.9005 24.386C44.4339 24.386 43.9765 24.5213 43.5285 24.792C43.0899 25.0627 42.6932 25.534 42.3385 26.206V30H40.7145ZM51.8951 30.168C51.5684 30.168 51.2277 30.0887 50.8731 29.93C50.5277 29.7713 50.2011 29.5427 49.8931 29.244H49.8511L49.7111 30H48.4371V20.116H50.0611V22.664L49.9911 23.868H50.0331C50.3224 23.588 50.6491 23.3687 51.0131 23.21C51.3864 23.042 51.7597 22.958 52.1331 22.958C52.7304 22.958 53.2344 23.1027 53.6451 23.392C54.0651 23.6813 54.3871 24.0873 54.6111 24.61C54.8351 25.1233 54.9471 25.7347 54.9471 26.444C54.9471 27.228 54.8024 27.9 54.5131 28.46C54.2237 29.0107 53.8457 29.4353 53.3791 29.734C52.9217 30.0233 52.4271 30.168 51.8951 30.168ZM51.5731 28.838C51.8904 28.838 52.1797 28.7493 52.4411 28.572C52.7024 28.3947 52.9077 28.1333 53.0571 27.788C53.2064 27.4333 53.2811 26.9947 53.2811 26.472C53.2811 26.0147 53.2251 25.6227 53.1131 25.296C53.0011 24.9693 52.8284 24.722 52.5951 24.554C52.3711 24.3767 52.0677 24.288 51.6851 24.288C51.4237 24.288 51.1577 24.3533 50.8871 24.484C50.6164 24.6147 50.3411 24.8247 50.0611 25.114V28.208C50.3131 28.432 50.5744 28.5953 50.8451 28.698C51.1157 28.7913 51.3584 28.838 51.5731 28.838ZM59.8836 30.168C59.2769 30.168 58.7123 30.028 58.1896 29.748C57.6669 29.4587 57.2423 29.048 56.9156 28.516C56.5889 27.9747 56.4256 27.326 56.4256 26.57C56.4256 25.8047 56.5889 25.156 56.9156 24.624C57.2423 24.0827 57.6669 23.672 58.1896 23.392C58.7123 23.1027 59.2769 22.958 59.8836 22.958C60.4903 22.958 61.0549 23.1027 61.5776 23.392C62.1003 23.672 62.5249 24.0827 62.8516 24.624C63.1783 25.156 63.3416 25.8047 63.3416 26.57C63.3416 27.326 63.1783 27.9747 62.8516 28.516C62.5249 29.048 62.1003 29.4587 61.5776 29.748C61.0549 30.028 60.4903 30.168 59.8836 30.168ZM59.8836 28.852C60.2569 28.852 60.5789 28.7587 60.8496 28.572C61.1203 28.3853 61.3256 28.1193 61.4656 27.774C61.6056 27.4287 61.6756 27.0273 61.6756 26.57C61.6756 26.1127 61.6056 25.7113 61.4656 25.366C61.3256 25.0207 61.1203 24.7547 60.8496 24.568C60.5789 24.372 60.2569 24.274 59.8836 24.274C59.5103 24.274 59.1883 24.372 58.9176 24.568C58.6563 24.7547 58.4509 25.0207 58.3016 25.366C58.1616 25.7113 58.0916 26.1127 58.0916 26.57C58.0916 27.0273 58.1616 27.4287 58.3016 27.774C58.4509 28.1193 58.6563 28.3853 58.9176 28.572C59.1883 28.7587 59.5103 28.852 59.8836 28.852ZM65.8981 30V23.126H67.2281L67.3681 24.68H67.4101C67.7555 24.12 68.1801 23.6953 68.6841 23.406C69.1975 23.1073 69.7481 22.958 70.3361 22.958C70.6161 22.958 70.8588 22.9813 71.0641 23.028C71.2695 23.0747 71.4701 23.1447 71.6661 23.238L71.3301 24.596C71.1061 24.5213 70.9055 24.47 70.7281 24.442C70.5601 24.4047 70.3455 24.386 70.0841 24.386C69.6175 24.386 69.1601 24.5213 68.7121 24.792C68.2735 25.0627 67.8768 25.534 67.5221 26.206V30H65.8981ZM76.6307 30V24.4H73.6487V23.126H78.2407V30H76.6307ZM77.3167 21.866C76.99 21.866 76.7147 21.768 76.4907 21.572C76.276 21.376 76.1687 21.1147 76.1687 20.788C76.1687 20.4613 76.276 20.2 76.4907 20.004C76.7147 19.7987 76.99 19.696 77.3167 19.696C77.6527 19.696 77.928 19.7987 78.1427 20.004C78.3573 20.2 78.4647 20.4613 78.4647 20.788C78.4647 21.1147 78.3573 21.376 78.1427 21.572C77.928 21.768 77.6527 21.866 77.3167 21.866ZM85.0672 30.168C84.4605 30.168 83.8959 30.028 83.3732 29.748C82.8505 29.4587 82.4259 29.048 82.0992 28.516C81.7725 27.9747 81.6092 27.326 81.6092 26.57C81.6092 25.8047 81.7725 25.156 82.0992 24.624C82.4259 24.0827 82.8505 23.672 83.3732 23.392C83.8959 23.1027 84.4605 22.958 85.0672 22.958C85.6739 22.958 86.2385 23.1027 86.7612 23.392C87.2839 23.672 87.7085 24.0827 88.0352 24.624C88.3619 25.156 88.5252 25.8047 88.5252 26.57C88.5252 27.326 88.3619 27.9747 88.0352 28.516C87.7085 29.048 87.2839 29.4587 86.7612 29.748C86.2385 30.028 85.6739 30.168 85.0672 30.168ZM85.0672 28.852C85.4405 28.852 85.7625 28.7587 86.0332 28.572C86.3039 28.3853 86.5092 28.1193 86.6492 27.774C86.7892 27.4287 86.8592 27.0273 86.8592 26.57C86.8592 26.1127 86.7892 25.7113 86.6492 25.366C86.5092 25.0207 86.3039 24.7547 86.0332 24.568C85.7625 24.372 85.4405 24.274 85.0672 24.274C84.6939 24.274 84.3719 24.372 84.1012 24.568C83.8399 24.7547 83.6345 25.0207 83.4852 25.366C83.3452 25.7113 83.2752 26.1127 83.2752 26.57C83.2752 27.0273 83.3452 27.4287 83.4852 27.774C83.6345 28.1193 83.8399 28.3853 84.1012 28.572C84.3719 28.7587 84.6939 28.852 85.0672 28.852Z" fill="black"/>
</g>
<defs>
<filter id="filter0_d_29_134" x="0" y="2" width="116" height="50" filterUnits="userSpaceOnUse" color-interpolation-filters="sRGB">
<feFlood flood-opacity="0" result="BackgroundImageFix"/>
<feColorMatrix in="SourceAlpha" type="matrix" values="0 0 0 0 0 0 0 0 0 0 0 0 0 0 0 0 0 0 127 0" result="hardAlpha"/>
<feOffset dx="-4" dy="4"/>
<feComposite in2="hardAlpha" operator="out"/>
<feColorMatrix type="matrix" values="0 0 0 0 0 0 0 0 0 0 0 0 0 0 0 0 0 0 1 0"/>
<feBlend mode="normal" in2="BackgroundImageFix" result="effect1_dropShadow_29_134"/>
<feBlend mode="normal" in="SourceGraphic" in2="effect1_dropShadow_29_134" result="shape"/>
</filter>
</defs>
</svg>
