<svg width="120" height="52" viewBox="0 0 120 52" fill="none" xmlns="http://www.w3.org/2000/svg">
<g filter="url(#filter0_d_29_128)">
<rect x="4" y="2" width="112" height="46" fill="#FFFFE9"/>
<rect x="5" y="3" width="110" height="44" stroke="black" stroke-width="2"/>
<path d="M31.704 30V20.844H34.546C35.1713 20.844 35.7267 20.9187 36.212 21.068C36.7067 21.208 37.094 21.4413 37.374 21.768C37.654 22.0947 37.794 22.538 37.794 23.098C37.794 23.5273 37.6633 23.9333 37.402 24.316C37.15 24.6893 36.7533 24.946 36.212 25.086V25.142C36.8747 25.254 37.3833 25.4873 37.738 25.842C38.0927 26.1967 38.27 26.6867 38.27 27.312C38.27 27.9187 38.1207 28.4227 37.822 28.824C37.5233 29.2253 37.108 29.524 36.576 29.72C36.0533 29.9067 35.456 30 34.784 30H31.704ZM33.328 24.61H34.406C35.0407 24.61 35.498 24.498 35.778 24.274C36.058 24.05 36.198 23.7233 36.198 23.294C36.198 22.874 36.0533 22.58 35.764 22.412C35.4747 22.2347 35.0313 22.146 34.434 22.146H33.328V24.61ZM33.328 28.698H34.616C35.288 28.698 35.7967 28.5813 36.142 28.348C36.4967 28.1053 36.674 27.7227 36.674 27.2C36.674 26.724 36.5013 26.3787 36.156 26.164C35.8107 25.9493 35.2973 25.842 34.616 25.842H33.328V28.698ZM42.1845 30.168C41.7365 30.168 41.3399 30.084 40.9945 29.916C40.6492 29.7387 40.3785 29.5007 40.1825 29.202C39.9865 28.9033 39.8885 28.5533 39.8885 28.152C39.8885 27.3867 40.2525 26.8033 40.9805 26.402C41.7179 25.9913 42.9359 25.7253 44.6345 25.604C44.6159 25.352 44.5459 25.1233 44.4245 24.918C44.3125 24.7127 44.1399 24.554 43.9065 24.442C43.6732 24.3207 43.3699 24.26 42.9965 24.26C42.7352 24.26 42.4785 24.2927 42.2265 24.358C41.9745 24.4233 41.7225 24.512 41.4705 24.624C41.2279 24.736 40.9852 24.8573 40.7425 24.988L40.1545 23.91C40.4345 23.742 40.7425 23.588 41.0785 23.448C41.4145 23.2987 41.7692 23.182 42.1425 23.098C42.5159 23.0047 42.8985 22.958 43.2905 22.958C43.9345 22.958 44.4712 23.0747 44.9005 23.308C45.3392 23.532 45.6705 23.868 45.8945 24.316C46.1279 24.7547 46.2445 25.2913 46.2445 25.926V30H44.9285L44.8025 29.146H44.7605C44.3965 29.426 43.9905 29.6687 43.5425 29.874C43.1039 30.07 42.6512 30.168 42.1845 30.168ZM42.6745 28.908C43.0199 28.908 43.3512 28.8333 43.6685 28.684C43.9952 28.5253 44.3172 28.32 44.6345 28.068V26.612C43.8132 26.668 43.1692 26.7613 42.7025 26.892C42.2359 27.0133 41.9092 27.172 41.7225 27.368C41.5359 27.564 41.4425 27.7833 41.4425 28.026C41.4425 28.2313 41.4985 28.3993 41.6105 28.53C41.7225 28.6607 41.8672 28.7587 42.0445 28.824C42.2312 28.88 42.4412 28.908 42.6745 28.908ZM51.5311 30.168C50.8871 30.168 50.2711 30.0653 49.6831 29.86C49.0951 29.6453 48.5864 29.3933 48.1571 29.104L48.8571 28.082C49.2677 28.3527 49.7111 28.5673 50.1871 28.726C50.6631 28.8753 51.1811 28.95 51.7411 28.95C52.2171 28.95 52.5671 28.8707 52.7911 28.712C53.0244 28.544 53.1411 28.348 53.1411 28.124C53.1411 28.012 53.1131 27.9093 53.0571 27.816C53.0104 27.7227 52.9217 27.6387 52.7911 27.564C52.6604 27.48 52.4691 27.4007 52.2171 27.326C51.9651 27.2513 51.6384 27.172 51.2371 27.088C50.3224 26.892 49.6504 26.626 49.2211 26.29C48.7917 25.954 48.5771 25.5293 48.5771 25.016C48.5771 24.4093 48.8384 23.9147 49.3611 23.532C49.8931 23.1493 50.6397 22.958 51.6011 22.958C52.1704 22.958 52.7024 23.0513 53.1971 23.238C53.7011 23.4247 54.1257 23.6347 54.4711 23.868L53.7291 24.862C53.4024 24.638 53.0431 24.47 52.6511 24.358C52.2591 24.2367 51.8624 24.176 51.4611 24.176C51.1531 24.176 50.9057 24.2087 50.7191 24.274C50.5417 24.3393 50.4064 24.4327 50.3131 24.554C50.2291 24.666 50.1871 24.792 50.1871 24.932C50.1871 25.1747 50.3271 25.3567 50.6071 25.478C50.8871 25.5993 51.3444 25.73 51.9791 25.87C52.7164 26.0287 53.2857 26.2107 53.6871 26.416C54.0884 26.612 54.3637 26.8407 54.5131 27.102C54.6717 27.354 54.7511 27.6667 54.7511 28.04C54.7511 28.432 54.6251 28.7913 54.3731 29.118C54.1304 29.4353 53.7711 29.692 53.2951 29.888C52.8191 30.0747 52.2311 30.168 51.5311 30.168ZM56.3276 30V23.126H57.5736L57.6996 23.994H57.7416C57.8909 23.6953 58.0823 23.448 58.3156 23.252C58.5489 23.056 58.8663 22.958 59.2676 22.958C59.5849 22.958 59.8509 23.056 60.0656 23.252C60.2803 23.4387 60.4296 23.7233 60.5136 24.106C60.6723 23.77 60.8729 23.4947 61.1156 23.28C61.3583 23.0653 61.6803 22.958 62.0816 22.958C62.5669 22.958 62.9403 23.1493 63.2016 23.532C63.4723 23.9053 63.6076 24.4373 63.6076 25.128V30H62.0536V25.24C62.0536 24.6333 61.8716 24.33 61.5076 24.33C61.3209 24.33 61.1623 24.4 61.0316 24.54C60.9103 24.68 60.7796 24.8993 60.6396 25.198V30H59.2956V25.24C59.2956 24.9413 59.2536 24.7173 59.1696 24.568C59.0856 24.4093 58.9456 24.33 58.7496 24.33C58.5723 24.33 58.4183 24.4 58.2876 24.54C58.1569 24.68 58.0263 24.8993 57.8956 25.198V30H56.3276ZM67.3681 30.168C66.9201 30.168 66.5235 30.084 66.1781 29.916C65.8328 29.7387 65.5621 29.5007 65.3661 29.202C65.1701 28.9033 65.0721 28.5533 65.0721 28.152C65.0721 27.3867 65.4361 26.8033 66.1641 26.402C66.9015 25.9913 68.1195 25.7253 69.8181 25.604C69.7995 25.352 69.7295 25.1233 69.6081 24.918C69.4961 24.7127 69.3235 24.554 69.0901 24.442C68.8568 24.3207 68.5535 24.26 68.1801 24.26C67.9188 24.26 67.6621 24.2927 67.4101 24.358C67.1581 24.4233 66.9061 24.512 66.6541 24.624C66.4115 24.736 66.1688 24.8573 65.9261 24.988L65.3381 23.91C65.6181 23.742 65.9261 23.588 66.2621 23.448C66.5981 23.2987 66.9528 23.182 67.3261 23.098C67.6995 23.0047 68.0821 22.958 68.4741 22.958C69.1181 22.958 69.6548 23.0747 70.0841 23.308C70.5228 23.532 70.8541 23.868 71.0781 24.316C71.3115 24.7547 71.4281 25.2913 71.4281 25.926V30H70.1121L69.9861 29.146H69.9441C69.5801 29.426 69.1741 29.6687 68.7261 29.874C68.2875 30.07 67.8348 30.168 67.3681 30.168ZM67.8581 28.908C68.2035 28.908 68.5348 28.8333 68.8521 28.684C69.1788 28.5253 69.5008 28.32 69.8181 28.068V26.612C68.9968 26.668 68.3528 26.7613 67.8861 26.892C67.4195 27.0133 67.0928 27.172 66.9061 27.368C66.7195 27.564 66.6261 27.7833 66.6261 28.026C66.6261 28.2313 66.6821 28.3993 66.7941 28.53C66.9061 28.6607 67.0508 28.7587 67.2281 28.824C67.4148 28.88 67.6248 28.908 67.8581 28.908ZM77.9467 30.168C77.2467 30.168 76.6913 30.0467 76.2807 29.804C75.87 29.552 75.576 29.2067 75.3987 28.768C75.2213 28.3293 75.1327 27.8207 75.1327 27.242V24.4H73.2987V23.196L75.2027 23.126L75.4127 20.97H76.7427V23.126H79.8787V24.4H76.7427V27.228C76.7427 27.6013 76.794 27.914 76.8967 28.166C76.9993 28.4087 77.1673 28.5907 77.4007 28.712C77.634 28.824 77.942 28.88 78.3247 28.88C78.6233 28.88 78.894 28.8567 79.1367 28.81C79.3793 28.7633 79.6127 28.698 79.8367 28.614L80.1447 29.776C79.8367 29.8787 79.5053 29.9673 79.1507 30.042C78.796 30.126 78.3947 30.168 77.9467 30.168ZM85.0252 30V24.4H82.0432V23.126H86.6352V30H85.0252ZM85.7112 21.866C85.3845 21.866 85.1092 21.768 84.8852 21.572C84.6705 21.376 84.5632 21.1147 84.5632 20.788C84.5632 20.4613 84.6705 20.2 84.8852 20.004C85.1092 19.7987 85.3845 19.696 85.7112 19.696C86.0472 19.696 86.3225 19.7987 86.5372 20.004C86.7519 20.2 86.8592 20.4613 86.8592 20.788C86.8592 21.1147 86.7519 21.376 86.5372 21.572C86.3225 21.768 86.0472 21.866 85.7112 21.866Z" fill="black"/>
</g>
<defs>
<filter id="filter0_d_29_128" x="0" y="2" width="116" height="50" filterUnits="userSpaceOnUse" color-interpolation-filters="sRGB">
<feFlood flood-opacity="0" result="BackgroundImageFix"/>
<feColorMatrix in="SourceAlpha" type="matrix" values="0 0 0 0 0 0 0 0 0 0 0 0 0 0 0 0 0 0 127 0" result="hardAlpha"/>
<feOffset dx="-4" dy="4"/>
<feComposite in2="hardAlpha" operator="out"/>
<feColorMatrix type="matrix" values="0 0 0 0 0 0 0 0 0 0 0 0 0 0 0 0 0 0 1 0"/>
<feBlend mode="normal" in2="BackgroundImageFix" result="effect1_dropShadow_29_128"/>
<feBlend mode="normal" in="SourceGraphic" in2="effect1_dropShadow_29_128" result="shape"/>
</filter>
</defs>
</svg>
