<svg width="120" height="52" viewBox="0 0 120 52" fill="none" xmlns="http://www.w3.org/2000/svg">
<g filter="url(#filter0_d_29_124)">
<rect x="4" y="2" width="112" height="46" fill="#FFFFE9"/>
<rect x="5" y="3" width="110" height="44" stroke="black" stroke-width="2"/>
<path d="M34.336 30.168C33.832 30.168 33.3187 30.0513 32.796 29.818C32.2733 29.5847 31.8347 29.1973 31.48 28.656L32.432 27.648C32.7027 28.012 32.9967 28.2873 33.314 28.474C33.6407 28.6607 33.9673 28.754 34.294 28.754C34.854 28.754 35.2693 28.6093 35.54 28.32C35.8107 28.0213 35.946 27.5267 35.946 26.836V22.202H32.236V20.844H37.57V26.976C37.57 27.564 37.4673 28.1007 37.262 28.586C37.0567 29.062 36.7207 29.4447 36.254 29.734C35.7873 30.0233 35.148 30.168 34.336 30.168ZM42.1845 30.168C41.7365 30.168 41.3399 30.084 40.9945 29.916C40.6492 29.7387 40.3785 29.5007 40.1825 29.202C39.9865 28.9033 39.8885 28.5533 39.8885 28.152C39.8885 27.3867 40.2525 26.8033 40.9805 26.402C41.7179 25.9913 42.9359 25.7253 44.6345 25.604C44.6159 25.352 44.5459 25.1233 44.4245 24.918C44.3125 24.7127 44.1399 24.554 43.9065 24.442C43.6732 24.3207 43.3699 24.26 42.9965 24.26C42.7352 24.26 42.4785 24.2927 42.2265 24.358C41.9745 24.4233 41.7225 24.512 41.4705 24.624C41.2279 24.736 40.9852 24.8573 40.7425 24.988L40.1545 23.91C40.4345 23.742 40.7425 23.588 41.0785 23.448C41.4145 23.2987 41.7692 23.182 42.1425 23.098C42.5159 23.0047 42.8985 22.958 43.2905 22.958C43.9345 22.958 44.4712 23.0747 44.9005 23.308C45.3392 23.532 45.6705 23.868 45.8945 24.316C46.1279 24.7547 46.2445 25.2913 46.2445 25.926V30H44.9285L44.8025 29.146H44.7605C44.3965 29.426 43.9905 29.6687 43.5425 29.874C43.1039 30.07 42.6512 30.168 42.1845 30.168ZM42.6745 28.908C43.0199 28.908 43.3512 28.8333 43.6685 28.684C43.9952 28.5253 44.3172 28.32 44.6345 28.068V26.612C43.8132 26.668 43.1692 26.7613 42.7025 26.892C42.2359 27.0133 41.9092 27.172 41.7225 27.368C41.5359 27.564 41.4425 27.7833 41.4425 28.026C41.4425 28.2313 41.4985 28.3993 41.6105 28.53C41.7225 28.6607 41.8672 28.7587 42.0445 28.824C42.2312 28.88 42.4412 28.908 42.6745 28.908ZM51.5311 30.168C50.8871 30.168 50.2711 30.0653 49.6831 29.86C49.0951 29.6453 48.5864 29.3933 48.1571 29.104L48.8571 28.082C49.2677 28.3527 49.7111 28.5673 50.1871 28.726C50.6631 28.8753 51.1811 28.95 51.7411 28.95C52.2171 28.95 52.5671 28.8707 52.7911 28.712C53.0244 28.544 53.1411 28.348 53.1411 28.124C53.1411 28.012 53.1131 27.9093 53.0571 27.816C53.0104 27.7227 52.9217 27.6387 52.7911 27.564C52.6604 27.48 52.4691 27.4007 52.2171 27.326C51.9651 27.2513 51.6384 27.172 51.2371 27.088C50.3224 26.892 49.6504 26.626 49.2211 26.29C48.7917 25.954 48.5771 25.5293 48.5771 25.016C48.5771 24.4093 48.8384 23.9147 49.3611 23.532C49.8931 23.1493 50.6397 22.958 51.6011 22.958C52.1704 22.958 52.7024 23.0513 53.1971 23.238C53.7011 23.4247 54.1257 23.6347 54.4711 23.868L53.7291 24.862C53.4024 24.638 53.0431 24.47 52.6511 24.358C52.2591 24.2367 51.8624 24.176 51.4611 24.176C51.1531 24.176 50.9057 24.2087 50.7191 24.274C50.5417 24.3393 50.4064 24.4327 50.3131 24.554C50.2291 24.666 50.1871 24.792 50.1871 24.932C50.1871 25.1747 50.3271 25.3567 50.6071 25.478C50.8871 25.5993 51.3444 25.73 51.9791 25.87C52.7164 26.0287 53.2857 26.2107 53.6871 26.416C54.0884 26.612 54.3637 26.8407 54.5131 27.102C54.6717 27.354 54.7511 27.6667 54.7511 28.04C54.7511 28.432 54.6251 28.7913 54.3731 29.118C54.1304 29.4353 53.7711 29.692 53.2951 29.888C52.8191 30.0747 52.2311 30.168 51.5311 30.168ZM56.3276 30V23.126H57.5736L57.6996 23.994H57.7416C57.8909 23.6953 58.0823 23.448 58.3156 23.252C58.5489 23.056 58.8663 22.958 59.2676 22.958C59.5849 22.958 59.8509 23.056 60.0656 23.252C60.2803 23.4387 60.4296 23.7233 60.5136 24.106C60.6723 23.77 60.8729 23.4947 61.1156 23.28C61.3583 23.0653 61.6803 22.958 62.0816 22.958C62.5669 22.958 62.9403 23.1493 63.2016 23.532C63.4723 23.9053 63.6076 24.4373 63.6076 25.128V30H62.0536V25.24C62.0536 24.6333 61.8716 24.33 61.5076 24.33C61.3209 24.33 61.1623 24.4 61.0316 24.54C60.9103 24.68 60.7796 24.8993 60.6396 25.198V30H59.2956V25.24C59.2956 24.9413 59.2536 24.7173 59.1696 24.568C59.0856 24.4093 58.9456 24.33 58.7496 24.33C58.5723 24.33 58.4183 24.4 58.2876 24.54C58.1569 24.68 58.0263 24.8993 57.8956 25.198V30H56.3276ZM68.2361 30V24.4H65.2541V23.126H69.8461V30H68.2361ZM68.9221 21.866C68.5955 21.866 68.3201 21.768 68.0961 21.572C67.8815 21.376 67.7741 21.1147 67.7741 20.788C67.7741 20.4613 67.8815 20.2 68.0961 20.004C68.3201 19.7987 68.5955 19.696 68.9221 19.696C69.2581 19.696 69.5335 19.7987 69.7481 20.004C69.9628 20.2 70.0701 20.4613 70.0701 20.788C70.0701 21.1147 69.9628 21.376 69.7481 21.572C69.5335 21.768 69.2581 21.866 68.9221 21.866ZM73.6207 30V23.126H74.9507L75.0767 24.162H75.1327C75.4593 23.826 75.8187 23.5413 76.2107 23.308C76.612 23.0747 77.0787 22.958 77.6107 22.958C78.404 22.958 78.9873 23.2007 79.3607 23.686C79.734 24.1713 79.9207 24.8573 79.9207 25.744V30H78.2967V25.954C78.2967 25.4033 78.1987 24.9973 78.0027 24.736C77.8067 24.4747 77.4753 24.344 77.0087 24.344C76.6727 24.344 76.374 24.4233 76.1127 24.582C75.8513 24.7407 75.562 24.9833 75.2447 25.31V30H73.6207ZM85.4872 30.168C84.7872 30.168 84.1525 30.028 83.5832 29.748C83.0139 29.4587 82.5612 29.048 82.2252 28.516C81.8892 27.9747 81.7212 27.3213 81.7212 26.556C81.7212 25.8093 81.8892 25.17 82.2252 24.638C82.5612 24.0967 82.9999 23.6813 83.5412 23.392C84.0825 23.1027 84.6612 22.958 85.2772 22.958C85.9585 22.958 86.5325 23.098 86.9992 23.378C87.4752 23.658 87.8345 24.0453 88.0772 24.54C88.3292 25.0253 88.4552 25.5853 88.4552 26.22C88.4552 26.3787 88.4459 26.5327 88.4272 26.682C88.4179 26.822 88.4039 26.9387 88.3852 27.032H82.8832V25.884H87.3492L87.0412 26.248C87.0412 25.5667 86.8872 25.058 86.5792 24.722C86.2805 24.3767 85.8605 24.204 85.3192 24.204C84.9365 24.204 84.5912 24.2927 84.2832 24.47C83.9845 24.6473 83.7465 24.9133 83.5692 25.268C83.3919 25.6133 83.3032 26.0427 83.3032 26.556C83.3032 27.088 83.4012 27.5267 83.5972 27.872C83.8025 28.2173 84.0825 28.4787 84.4372 28.656C84.8012 28.8333 85.2212 28.922 85.6972 28.922C86.0612 28.922 86.3972 28.8707 86.7052 28.768C87.0132 28.6653 87.3212 28.5253 87.6292 28.348L88.1752 29.356C87.8112 29.5893 87.4005 29.7853 86.9432 29.944C86.4859 30.0933 86.0005 30.168 85.4872 30.168Z" fill="black"/>
</g>
<defs>
<filter id="filter0_d_29_124" x="0" y="2" width="116" height="50" filterUnits="userSpaceOnUse" color-interpolation-filters="sRGB">
<feFlood flood-opacity="0" result="BackgroundImageFix"/>
<feColorMatrix in="SourceAlpha" type="matrix" values="0 0 0 0 0 0 0 0 0 0 0 0 0 0 0 0 0 0 127 0" result="hardAlpha"/>
<feOffset dx="-4" dy="4"/>
<feComposite in2="hardAlpha" operator="out"/>
<feColorMatrix type="matrix" values="0 0 0 0 0 0 0 0 0 0 0 0 0 0 0 0 0 0 1 0"/>
<feBlend mode="normal" in2="BackgroundImageFix" result="effect1_dropShadow_29_124"/>
<feBlend mode="normal" in="SourceGraphic" in2="effect1_dropShadow_29_124" result="shape"/>
</filter>
</defs>
</svg>
