<svg width="69" height="70" viewBox="0 0 69 70" fill="none" xmlns="http://www.w3.org/2000/svg">
<g filter="url(#filter0_d_10_507)">
<rect x="3.64998" y="1.76465" width="62.7" height="64.4708" fill="#0AC285"/>
<rect x="4.47498" y="2.58965" width="61.05" height="62.8208" stroke="black" stroke-width="1.65"/>
<rect x="53.15" y="36.048" width="6.14604" height="4.21667" transform="rotate(-180 53.15 36.048)" fill="black"/>
<rect x="47.004" y="31.8314" width="6.14604" height="4.21667" transform="rotate(-180 47.004 31.8314)" fill="black"/>
<rect x="40.8579" y="27.6147" width="6.14604" height="4.21667" transform="rotate(-180 40.8579 27.6147)" fill="black"/>
<rect x="34.7119" y="23.398" width="6.14604" height="4.21667" transform="rotate(-180 34.7119 23.398)" fill="black"/>
<rect x="28.5659" y="19.1813" width="6.14604" height="4.21667" transform="rotate(-180 28.5659 19.1813)" fill="black"/>
<rect x="16.85" y="52.9147" width="37.95" height="4.2254" transform="rotate(-90 16.85 52.9147)" fill="black"/>
<rect width="6.14604" height="4.21667" transform="matrix(-1 8.72422e-08 8.76037e-08 1 47.004 36.048)" fill="black"/>
<rect width="6.14604" height="4.21667" transform="matrix(-1 8.72422e-08 8.76037e-08 1 40.8579 40.2647)" fill="black"/>
<rect width="6.14604" height="4.21667" transform="matrix(-1 8.72421e-08 8.76038e-08 1 34.7119 44.4814)" fill="black"/>
<rect width="6.14604" height="4.21667" transform="matrix(-1 8.72421e-08 8.76038e-08 1 28.5659 48.6981)" fill="black"/>
</g>
<defs>
<filter id="filter0_d_10_507" x="0.349979" y="1.76465" width="66" height="67.7708" filterUnits="userSpaceOnUse" color-interpolation-filters="sRGB">
<feFlood flood-opacity="0" result="BackgroundImageFix"/>
<feColorMatrix in="SourceAlpha" type="matrix" values="0 0 0 0 0 0 0 0 0 0 0 0 0 0 0 0 0 0 127 0" result="hardAlpha"/>
<feOffset dx="-3.3" dy="3.3"/>
<feComposite in2="hardAlpha" operator="out"/>
<feColorMatrix type="matrix" values="0 0 0 0 0 0 0 0 0 0 0 0 0 0 0 0 0 0 1 0"/>
<feBlend mode="normal" in2="BackgroundImageFix" result="effect1_dropShadow_10_507"/>
<feBlend mode="normal" in="SourceGraphic" in2="effect1_dropShadow_10_507" result="shape"/>
</filter>
</defs>
</svg>
