<svg width="147" height="154" viewBox="0 0 147 154" fill="none" xmlns="http://www.w3.org/2000/svg">
<rect x="147" y="85.5555" width="24.8889" height="17.1111" transform="rotate(-180 147 85.5555)" fill="black"/>
<rect x="122.111" y="68.4445" width="24.8889" height="17.1111" transform="rotate(-180 122.111 68.4445)" fill="black"/>
<rect x="97.2222" y="51.3333" width="24.8889" height="17.1111" transform="rotate(-180 97.2222 51.3333)" fill="black"/>
<rect x="72.3333" y="34.2222" width="24.8889" height="17.1111" transform="rotate(-180 72.3333 34.2222)" fill="black"/>
<rect x="47.4445" y="17.1111" width="24.8889" height="17.1111" transform="rotate(-180 47.4445 17.1111)" fill="black"/>
<rect y="154" width="154" height="17.1111" transform="rotate(-90 0 154)" fill="black"/>
<rect width="24.8889" height="17.1111" transform="matrix(-1 8.74228e-08 8.74228e-08 1 122.111 85.5555)" fill="black"/>
<rect width="24.8889" height="17.1111" transform="matrix(-1 8.74228e-08 8.74228e-08 1 97.2222 102.667)" fill="black"/>
<rect width="24.8889" height="17.1111" transform="matrix(-1 8.74228e-08 8.74228e-08 1 72.3333 119.778)" fill="black"/>
<rect width="24.8889" height="17.1111" transform="matrix(-1 8.74228e-08 8.74228e-08 1 47.4445 136.889)" fill="black"/>
</svg>
