<svg width="120" height="52" viewBox="0 0 120 52" fill="none" xmlns="http://www.w3.org/2000/svg">
<g filter="url(#filter0_d_29_131)">
<rect x="4" y="2" width="112" height="46" fill="#FFFFE9"/>
<rect x="5" y="3" width="110" height="44" stroke="black" stroke-width="2"/>
<path d="M43.228 30.168C42.584 30.168 41.968 30.0513 41.38 29.818C40.792 29.5847 40.2693 29.2533 39.812 28.824L40.764 27.718C41.1093 28.026 41.5013 28.278 41.94 28.474C42.3787 28.6607 42.8407 28.754 43.326 28.754C43.858 28.754 44.264 28.6513 44.544 28.446C44.824 28.2313 44.964 27.9653 44.964 27.648C44.964 27.3773 44.8987 27.1627 44.768 27.004C44.6373 26.836 44.4553 26.696 44.222 26.584C43.998 26.472 43.732 26.3553 43.424 26.234L42.178 25.688C41.8607 25.5573 41.548 25.3893 41.24 25.184C40.9413 24.9787 40.694 24.7173 40.498 24.4C40.3113 24.0827 40.218 23.7 40.218 23.252C40.218 22.7667 40.3533 22.3327 40.624 21.95C40.8947 21.558 41.268 21.25 41.744 21.026C42.2293 20.7927 42.78 20.676 43.396 20.676C43.956 20.676 44.488 20.7833 44.992 20.998C45.5053 21.2033 45.9533 21.4833 46.336 21.838L45.496 22.874C45.188 22.622 44.8613 22.4307 44.516 22.3C44.18 22.16 43.7787 22.09 43.312 22.09C42.8827 22.09 42.5327 22.1833 42.262 22.37C41.9913 22.5567 41.856 22.8227 41.856 23.168C41.856 23.4013 41.9307 23.5927 42.08 23.742C42.2293 23.8913 42.4207 24.022 42.654 24.134C42.8967 24.246 43.1533 24.3533 43.424 24.456L44.628 24.974C45.02 25.1233 45.3653 25.3053 45.664 25.52C45.9627 25.7347 46.196 26.0007 46.364 26.318C46.532 26.626 46.616 27.004 46.616 27.452C46.616 27.9467 46.4807 28.3993 46.21 28.81C45.9393 29.2207 45.552 29.552 45.048 29.804C44.544 30.0467 43.9373 30.168 43.228 30.168ZM50.6705 30.168C49.8679 30.168 49.2845 29.9253 48.9205 29.44C48.5565 28.9547 48.3745 28.2687 48.3745 27.382V23.126H49.9845V27.172C49.9845 27.7227 50.0779 28.1287 50.2645 28.39C50.4605 28.6513 50.7965 28.782 51.2725 28.782C51.5899 28.782 51.8792 28.7073 52.1405 28.558C52.4112 28.3993 52.6959 28.1333 52.9945 27.76V23.126H54.6045V30H53.2885L53.1625 28.908H53.1065C52.7799 29.2813 52.4205 29.5847 52.0285 29.818C51.6365 30.0513 51.1839 30.168 50.6705 30.168ZM60.0311 30.168C59.3871 30.168 58.7711 30.0653 58.1831 29.86C57.5951 29.6453 57.0864 29.3933 56.6571 29.104L57.3571 28.082C57.7677 28.3527 58.2111 28.5673 58.6871 28.726C59.1631 28.8753 59.6811 28.95 60.2411 28.95C60.7171 28.95 61.0671 28.8707 61.2911 28.712C61.5244 28.544 61.6411 28.348 61.6411 28.124C61.6411 28.012 61.6131 27.9093 61.5571 27.816C61.5104 27.7227 61.4217 27.6387 61.2911 27.564C61.1604 27.48 60.9691 27.4007 60.7171 27.326C60.4651 27.2513 60.1384 27.172 59.7371 27.088C58.8224 26.892 58.1504 26.626 57.7211 26.29C57.2917 25.954 57.0771 25.5293 57.0771 25.016C57.0771 24.4093 57.3384 23.9147 57.8611 23.532C58.3931 23.1493 59.1397 22.958 60.1011 22.958C60.6704 22.958 61.2024 23.0513 61.6971 23.238C62.2011 23.4247 62.6257 23.6347 62.9711 23.868L62.2291 24.862C61.9024 24.638 61.5431 24.47 61.1511 24.358C60.7591 24.2367 60.3624 24.176 59.9611 24.176C59.6531 24.176 59.4057 24.2087 59.2191 24.274C59.0417 24.3393 58.9064 24.4327 58.8131 24.554C58.7291 24.666 58.6871 24.792 58.6871 24.932C58.6871 25.1747 58.8271 25.3567 59.1071 25.478C59.3871 25.5993 59.8444 25.73 60.4791 25.87C61.2164 26.0287 61.7857 26.2107 62.1871 26.416C62.5884 26.612 62.8637 26.8407 63.0131 27.102C63.1717 27.354 63.2511 27.6667 63.2511 28.04C63.2511 28.432 63.1251 28.7913 62.8731 29.118C62.6304 29.4353 62.2711 29.692 61.7951 29.888C61.3191 30.0747 60.7311 30.168 60.0311 30.168ZM65.3316 30V20.116H66.9556V22.664L66.8576 24.134H66.8996C67.1983 23.8167 67.5436 23.5413 67.9356 23.308C68.3369 23.0747 68.7989 22.958 69.3216 22.958C70.1149 22.958 70.6983 23.2007 71.0716 23.686C71.4449 24.1713 71.6316 24.8573 71.6316 25.744V30H70.0076V25.954C70.0076 25.4033 69.9096 24.9973 69.7136 24.736C69.5176 24.4747 69.1863 24.344 68.7196 24.344C68.3836 24.344 68.0849 24.4233 67.8236 24.582C67.5623 24.7407 67.2729 24.9833 66.9556 25.31V30H65.3316ZM76.7361 30V24.4H73.7541V23.126H78.3461V30H76.7361ZM77.4221 21.866C77.0955 21.866 76.8201 21.768 76.5961 21.572C76.3815 21.376 76.2741 21.1147 76.2741 20.788C76.2741 20.4613 76.3815 20.2 76.5961 20.004C76.8201 19.7987 77.0955 19.696 77.4221 19.696C77.7581 19.696 78.0335 19.7987 78.2481 20.004C78.4628 20.2 78.5701 20.4613 78.5701 20.788C78.5701 21.1147 78.4628 21.376 78.2481 21.572C78.0335 21.768 77.7581 21.866 77.4221 21.866Z" fill="black"/>
</g>
<defs>
<filter id="filter0_d_29_131" x="0" y="2" width="116" height="50" filterUnits="userSpaceOnUse" color-interpolation-filters="sRGB">
<feFlood flood-opacity="0" result="BackgroundImageFix"/>
<feColorMatrix in="SourceAlpha" type="matrix" values="0 0 0 0 0 0 0 0 0 0 0 0 0 0 0 0 0 0 127 0" result="hardAlpha"/>
<feOffset dx="-4" dy="4"/>
<feComposite in2="hardAlpha" operator="out"/>
<feColorMatrix type="matrix" values="0 0 0 0 0 0 0 0 0 0 0 0 0 0 0 0 0 0 1 0"/>
<feBlend mode="normal" in2="BackgroundImageFix" result="effect1_dropShadow_29_131"/>
<feBlend mode="normal" in="SourceGraphic" in2="effect1_dropShadow_29_131" result="shape"/>
</filter>
</defs>
</svg>
